<svg width="103" height="27" viewBox="0 0 103 27" fill="none" xmlns="http://www.w3.org/2000/svg">
<g clip-path="url(#clip0_820_1774)">
<path d="M26.5499 9.50237L26.4848 11.5939L21.0298 17.5235C23.3085 17.5235 24.7533 17.5012 25.5865 17.4549C25.345 18.5802 25.1487 19.5002 24.9509 20.8794C23.8551 20.7869 22.1467 20.7637 20.4375 20.7637C18.5322 20.7637 16.867 20.7866 15.5306 20.8794L15.5751 18.7642L21.0298 12.8583C18.6418 12.8583 17.7653 12.8809 16.7799 12.904C16.9983 11.8467 17.1519 10.6751 17.3051 9.50237C19.0357 9.57121 19.7148 9.59376 21.9715 9.59376C24.0529 9.59405 25.2351 9.57121 26.5499 9.50237ZM32.7501 8.88116C29.2001 8.88116 26.4848 12.0529 26.4848 15.8464C26.4848 18.6959 28.1275 20.8794 31.3258 20.8794C34.8969 20.8794 37.5914 17.7071 37.5914 13.8913C37.5917 11.0658 35.9918 8.88116 32.7501 8.88116ZM31.6763 17.8309C30.8874 17.8309 30.4278 17.1174 30.4278 15.7157C30.4278 13.6241 31.2821 11.9467 32.3343 11.9467C33.1004 11.9467 33.5605 12.6368 33.5605 14.0608C33.5602 16.1292 32.7284 17.8309 31.6763 17.8309ZM82.9263 8.72383C79.3309 8.72383 76.5791 11.9375 76.5791 15.7787C76.5791 18.667 78.2435 20.8794 81.4838 20.8794C85.1014 20.8794 87.8315 17.6655 87.8315 13.8002C87.8318 10.9365 86.2123 8.72383 82.9263 8.72383ZM81.7709 17.8188C80.9817 17.8188 80.5224 17.1053 80.5224 15.7035C80.5224 13.612 81.377 11.9349 82.4289 11.9349C83.1947 11.9349 83.6557 12.6243 83.6557 14.0487C83.6551 16.1179 82.8225 17.8188 81.7709 17.8188ZM56.0149 13.0188C56.3001 11.0658 56.1468 9.29559 53.9784 9.29559C52.4007 9.29559 50.6921 10.6288 49.4873 12.8583C49.7505 11.019 49.5966 9.29559 47.4498 9.29559C45.8288 9.29559 44.0763 10.6974 42.8709 13.0188C43.1777 11.5019 43.1123 9.7777 43.0244 9.41012C41.7759 9.61719 40.681 9.73171 39.1471 9.7777C39.191 10.8353 39.1251 12.2134 38.9278 13.5246L38.424 16.9717C38.2268 18.3283 38.0076 19.8912 37.7884 20.8797H41.8633C41.8855 20.2813 42.0391 19.3394 42.1484 18.512L42.4989 16.1451C42.7835 14.6042 44.01 12.7895 44.952 12.7895C45.4997 12.7895 45.4783 13.3179 45.3248 14.3061L44.9303 16.9714C44.7325 18.328 44.5141 19.8909 44.2946 20.8794H48.4132C48.4354 20.281 48.5667 19.3391 48.6761 18.5117L49.0263 16.1448C49.3114 14.604 50.5388 12.7892 51.4802 12.7892C52.0285 12.7892 52.0068 13.2941 51.9183 13.9842L50.9345 20.8791H54.6933L56.0149 13.0188ZM75.6956 17.271L75.2575 19.9835C74.5781 20.351 73.3074 20.88 71.8396 20.88C69.3421 20.88 68.8389 19.5468 69.2325 16.7198L69.8681 12.1688H68.639L68.9861 9.223L70.328 9.15822L70.8321 7.02071L74.6215 5.59521L74.14 9.15793H76.7472C76.6598 9.52551 76.3521 11.5488 76.2659 12.1686H73.7232L73.1535 16.3748C73.0002 17.4549 73.0884 17.8459 73.8323 17.8459C74.3812 17.8454 75.191 17.5235 75.6956 17.271ZM61.321 18.7361C62.7002 18.5652 63.6494 17.2357 63.8775 15.9091L63.916 15.5537C63.3234 15.4212 62.4668 15.3203 61.6362 15.4218C60.8452 15.5181 60.187 15.847 59.833 16.323C59.5661 16.6648 59.4319 17.0738 59.4915 17.5614C59.5814 18.2916 60.3892 18.8498 61.321 18.7361ZM60.1471 20.8369C58.2005 21.0761 56.9184 20.3033 56.5335 18.5458C56.292 17.4399 56.6272 16.1801 57.2134 15.4285C57.9986 14.4455 59.278 13.8144 60.8394 13.6238C62.096 13.468 63.1548 13.5449 64.1451 13.7323L64.1861 13.5625C64.2145 13.291 64.2431 13.02 64.2035 12.6955C64.1008 11.8623 63.4437 11.366 61.8213 11.5656C60.7267 11.7 59.6852 12.0954 58.8766 12.5454L58.09 10.1684C59.1861 9.5391 60.5676 9.06018 62.1487 8.86612C65.1688 8.49565 67.291 9.4587 67.5629 11.6729C67.6349 12.2617 67.6436 12.8858 67.5692 13.452C67.1814 16.1897 66.933 18.2497 66.824 19.6303C66.8063 19.8441 66.8078 20.2113 66.8269 20.7319L63.079 20.7284C63.1589 20.5127 63.2303 20.22 63.2939 19.853C63.3362 19.6115 63.3662 19.307 63.385 18.938C62.5929 20.0248 61.504 20.6703 60.1471 20.8369Z" fill="#FFEBDB"/>
</g>
<defs>
<clipPath id="clip0_820_1774">
<rect width="102.081" height="25.917" fill="white" transform="translate(0.413315 0.450195)"/>
</clipPath>
</defs>
</svg>
