<svg width="153" height="18" viewBox="0 0 153 18" fill="none" xmlns="http://www.w3.org/2000/svg">
<g clip-path="url(#clip0_61_24160)">
<path d="M6.43194 8.20204C6.3769 8.13289 6.30417 8.07854 6.22079 8.04427C6.13741 8.00999 6.04622 7.99695 5.95604 8.00641C5.86586 8.01587 5.77976 8.04751 5.70608 8.09826C5.6324 8.149 5.57364 8.21714 5.53548 8.29607L0.988745 17.0171C0.947214 17.0964 0.927524 17.1847 0.931542 17.2734C0.935561 17.3622 0.963156 17.4484 1.01171 17.5241C1.06026 17.5997 1.12816 17.6622 1.20896 17.7056C1.28976 17.749 1.38079 17.7718 1.47339 17.772H7.80465C7.90714 17.7739 8.00795 17.7469 8.09459 17.6944C8.18124 17.6418 8.24991 17.5661 8.2921 17.4765C9.6564 14.7898 8.82998 10.6604 6.43194 8.20204Z" fill="#FFEBDB"/>
<path d="M9.77754 0.279513C8.64409 1.95176 7.98355 3.87794 7.86077 5.86897C7.73798 7.85999 8.15717 9.84741 9.07718 11.6361L12.1448 17.4743C12.1895 17.5611 12.2585 17.6341 12.3441 17.6854C12.4297 17.7366 12.5285 17.764 12.6294 17.7645H18.9607C19.0494 17.7574 19.1351 17.7302 19.2107 17.6851C19.2863 17.64 19.3496 17.5782 19.3953 17.5049C19.4411 17.4316 19.4679 17.349 19.4737 17.2637C19.4795 17.1785 19.464 17.0932 19.4285 17.0149L10.702 0.279513C10.6602 0.195951 10.5947 0.125419 10.5129 0.076051C10.4311 0.0266827 10.3364 0.000488281 10.2398 0.000488281C10.1431 0.000488281 10.0485 0.0266827 9.96669 0.076051C9.8849 0.125419 9.81933 0.195951 9.77754 0.279513Z" fill="#FFEBDB"/>
<path d="M143.531 9.57353L148.128 17.7679H152.213V3.1416H148.963V12.5799L147.733 9.8422L144.041 3.1416H138.912V17.7679H142.161V6.6128L143.531 9.57353Z" fill="#FFEBDB"/>
<path d="M118.245 3.1416H114.693V17.7679H118.245V3.1416Z" fill="#FFEBDB"/>
<path d="M110.594 13.4476C110.594 10.8871 109.179 9.6862 105.185 8.86139C102.98 8.3939 102.447 7.92642 102.447 7.24937C102.447 6.40307 103.235 6.04574 104.689 6.04574C106.454 6.04574 108.196 6.5589 109.843 7.27087V3.92594C108.261 3.2352 106.538 2.89278 104.801 2.92381C100.853 2.92381 98.8112 4.57075 98.8112 7.26549C98.8112 9.41484 99.8562 11.137 103.941 11.8947C106.378 12.3836 106.891 12.7625 106.891 13.5416C106.891 14.3207 106.378 14.7882 104.649 14.7882C102.575 14.7519 100.541 14.2249 98.73 13.2541V16.771C99.9598 17.3486 101.585 17.9934 104.613 17.9934C108.882 17.9934 110.577 16.1692 110.577 13.4529" fill="#FFEBDB"/>
<path d="M95.7954 13.4476C95.7954 10.8871 94.3947 9.6862 90.3886 8.86139C88.1839 8.3939 87.6488 7.92642 87.6488 7.24937C87.6488 6.40307 88.4388 6.04574 89.8899 6.04574C91.6548 6.04574 93.3945 6.5589 95.0418 7.27087V3.92594C93.46 3.2352 91.737 2.89278 89.9992 2.92381C86.0548 2.92381 84.0097 4.57075 84.0097 7.26549C84.0097 9.41484 85.0547 11.137 89.142 11.8947C91.5792 12.3836 92.0891 12.7625 92.0891 13.5416C92.0891 14.3207 91.5792 14.7882 89.8479 14.7882C87.7732 14.7519 85.7399 14.2249 83.9285 13.2541V16.771C85.1611 17.3486 86.7859 17.9934 89.8115 17.9934C94.0837 17.9934 95.7758 16.1692 95.7758 13.4529" fill="#FFEBDB"/>
<path d="M60.0115 14.6057V3.1416H56.4369V17.7679H63.7374L64.886 14.6057H60.0115Z" fill="#FFEBDB"/>
<path d="M49.5299 17.7679V6.30114H53.7545V3.1416H42.0081V6.30114H45.9553V17.7679H49.5299Z" fill="#FFEBDB"/>
<path d="M36.8313 3.1416H32.1473L26.8246 17.7679H30.9007L31.6571 15.3042C33.5135 15.8274 35.4876 15.8274 37.344 15.3042L38.0976 17.7679H42.1597L36.8313 3.1416ZM34.4893 12.6686C33.8256 12.6695 33.1652 12.579 32.5283 12.3999L34.4893 6.01636L36.4503 12.3999C35.8134 12.5788 35.153 12.6693 34.4893 12.6686Z" fill="#FFEBDB"/>
<path d="M76.3347 3.1416H71.6507L66.328 17.7679H70.3901L71.1465 15.3042C73.0029 15.8274 74.977 15.8274 76.8334 15.3042L77.587 17.7679H81.6491L76.3347 3.1416ZM73.9927 12.6686C73.329 12.6697 72.6686 12.5792 72.0317 12.3999L73.9927 6.01636L75.9538 12.3999C75.3169 12.5793 74.6565 12.6698 73.9927 12.6686Z" fill="#FFEBDB"/>
<path d="M131.022 3.1416H126.338L121.015 17.7679H125.077L125.831 15.3042C127.687 15.8274 129.661 15.8274 131.517 15.3042L132.271 17.7679H136.336L131.022 3.1416ZM128.68 12.6686C128.016 12.6693 127.356 12.5788 126.719 12.3999L128.68 6.01636L130.641 12.3999C130.004 12.5788 129.343 12.6693 128.68 12.6686Z" fill="#FFEBDB"/>
</g>
<defs>
<clipPath id="clip0_61_24160">
<rect width="151.277" height="17.9897" fill="white" transform="translate(0.930176 0.000488281)"/>
</clipPath>
</defs>
</svg>
