<svg width="87" height="27" viewBox="0 0 87 27" fill="none" xmlns="http://www.w3.org/2000/svg">
<path d="M12.5846 9.85525C12.5846 11.3377 11.3638 12.5585 9.88137 12.5585C8.39894 12.5585 7.17812 11.3377 7.17812 9.85525C7.17812 8.37282 8.39894 7.152 9.88137 7.152C11.3638 7.152 12.5846 8.37282 12.5846 9.85525ZM9.88137 13.6049C8.39894 13.6049 7.17812 14.8257 7.17812 16.3082C7.17812 17.7906 8.39894 19.0114 9.88137 19.0114C11.3638 19.0114 12.5846 17.7906 12.5846 16.3082C12.5846 14.8257 11.3638 13.6049 9.88137 13.6049ZM26.1881 13.0817C26.1881 20.3194 20.3456 26.1619 13.1078 26.1619C5.8701 26.1619 0.0275879 20.3194 0.0275879 13.0817C0.0275879 5.84397 5.8701 0.00146484 13.1078 0.00146484C20.3456 0.00146484 26.1881 5.84397 26.1881 13.0817ZM22.7 13.0817C22.7 7.76241 18.4271 3.48953 13.1078 3.48953C7.78853 3.48953 3.51565 7.76241 3.51565 13.0817C3.51565 18.401 7.78853 22.6739 13.1078 22.6739C18.4271 22.6739 22.7 18.401 22.7 13.0817ZM16.3343 13.6049C14.8519 13.6049 13.631 14.8257 13.631 16.3082C13.631 17.7906 14.8519 19.0114 16.3343 19.0114C17.8167 19.0114 19.0375 17.7906 19.0375 16.3082C19.0375 14.8257 17.8167 13.6049 16.3343 13.6049ZM16.3343 7.152C14.8519 7.152 13.631 8.37282 13.631 9.85525C13.631 11.3377 14.8519 12.5585 16.3343 12.5585C17.8167 12.5585 19.0375 11.3377 19.0375 9.85525C19.0375 8.37282 17.8167 7.152 16.3343 7.152ZM61.3303 5.14636C61.4175 5.14636 61.5047 5.23356 61.5919 5.32076V8.11121C61.5919 8.28562 61.4175 8.37282 61.3303 8.37282H56.7086C56.5342 8.37282 56.447 8.19842 56.447 8.11121V5.40796C56.447 5.23356 56.6214 5.14636 56.7086 5.14636H61.3303ZM61.2431 9.07043H52.3485C52.2613 9.07043 52.0869 9.15763 52.0869 9.33204L50.9533 13.6921L50.8661 13.9537L49.4709 9.33204C49.4709 9.24483 49.2965 9.07043 49.2093 9.07043H45.7212C45.634 9.07043 45.4596 9.15763 45.4596 9.33204L44.1516 13.6921L44.0644 13.9537L43.9772 13.6921L43.454 11.5121L42.9308 9.33204C42.9308 9.24483 42.7564 9.07043 42.6692 9.07043H35.693V5.32076C35.693 5.23356 35.5186 5.05916 35.3442 5.14636L30.9842 6.54159C30.8098 6.54159 30.7226 6.62879 30.7226 6.80319V9.15763H29.5889C29.5017 9.15763 29.3273 9.24484 29.3273 9.41924V12.7329C29.3273 12.8201 29.4145 12.9945 29.5889 12.9945H30.7226V17.093C30.7226 19.9706 32.2922 21.2787 35.1698 21.2787C36.3907 21.2787 37.5243 21.0171 38.3091 20.581V17.093C38.3091 16.9186 38.1347 16.8314 38.0475 16.9186C37.6115 17.093 37.1755 17.1802 36.8267 17.1802C36.0419 17.1802 35.6058 16.8314 35.6058 15.9594V12.9945H38.1347C38.2219 12.9945 38.3963 12.9073 38.3963 12.7329V9.94245L41.71 20.9299C41.71 21.0171 41.8844 21.1915 41.9716 21.1915H45.634C45.7212 21.1915 45.8956 21.1043 45.8956 20.9299L47.4653 16.0466L48.2501 18.5754L48.9477 20.9299C48.9477 21.0171 49.1221 21.1915 49.2093 21.1915H52.8718C52.959 21.1915 53.1334 21.1043 53.1334 20.9299L56.447 9.94245V20.9299C56.447 21.0171 56.5342 21.1915 56.7086 21.1915H61.1559C61.2431 21.1915 61.4175 21.1043 61.4175 20.9299V9.33204C61.4175 9.24483 61.3303 9.07043 61.2431 9.07043ZM67.0856 5.14636H62.6383C62.5511 5.14636 62.3767 5.23356 62.3767 5.40796V20.8426C62.3767 20.9299 62.4639 21.1043 62.6383 21.1043H67.0856C67.1728 21.1043 67.3472 21.0171 67.3472 20.8426V5.32076C67.3472 5.23356 67.26 5.14636 67.0856 5.14636ZM73.0153 5.14636H68.3936C68.3064 5.14636 68.132 5.23356 68.132 5.40796V8.11121C68.132 8.19842 68.2192 8.37282 68.3936 8.37282H73.0153C73.1025 8.37282 73.2769 8.28562 73.2769 8.11121V5.32076C73.2769 5.23356 73.1897 5.14636 73.0153 5.14636ZM72.9281 9.07043H68.4808C68.3936 9.07043 68.2192 9.15763 68.2192 9.33204V20.7554C68.2192 20.8426 68.3064 21.0171 68.4808 21.0171H72.9281C73.0153 21.0171 73.1897 20.9299 73.1897 20.7554V9.33204C73.1897 9.24483 73.1025 9.07043 72.9281 9.07043ZM86.9676 15.0001C86.9676 18.3138 84.1771 21.1915 80.2531 21.1915C76.4162 21.1915 73.6257 18.3138 73.6257 15.0001C73.6257 11.6865 76.4162 8.80883 80.3403 8.80883C84.1771 8.80883 86.9676 11.6865 86.9676 15.0001ZM82.2587 15.0873C82.2587 13.8665 81.3867 12.9073 80.3403 12.9945C79.2066 12.9945 78.4218 13.9537 78.4218 15.0873C78.4218 16.221 79.2938 17.1802 80.3403 17.1802C81.4739 17.1802 82.2587 16.221 82.2587 15.0873Z" fill="#FFEBDB"/>
</svg>
