<svg width="110" height="25" viewBox="0 0 110 25" fill="none" xmlns="http://www.w3.org/2000/svg">
<path d="M9.61248 12.0897C10.2858 12.0897 10.8734 12.1148 11.3942 12.2165C12.1356 12.3558 12.7631 13.4615 12.7631 14.0012C12.7631 14.2773 12.7631 14.5835 12.6505 15.0303C12.4675 15.7156 11.2101 18.1805 10.6869 19.1079C10.057 18.0148 8.57439 14.9274 8.06179 13.7251C7.83892 13.2205 7.72632 12.8013 7.72632 12.5955C7.72632 12.2165 8.43011 12.0897 9.61248 12.0897ZM1.21037 12.0897C1.83909 12.2567 2.20741 12.396 2.72352 13.3849C4.54048 16.953 6.35978 20.8863 8.12982 24.7556C8.35269 24.9564 8.6131 25.0016 8.98962 25.0016C9.35325 25.0016 9.61131 24.9564 9.84356 24.7569C10.6869 23.0538 12.9121 18.4829 13.8716 16.7083C14.9883 18.9021 16.9108 22.9057 17.6909 24.7569C17.9067 24.9577 18.1741 25.0016 18.5389 25.0016C18.9084 25.0016 19.1747 24.9564 19.3893 24.7569C20.9599 21.0806 22.6155 17.4465 24.3546 13.8581C24.9481 12.5955 25.205 12.2567 26.4284 12.0132L26.9469 11.9153C27.2425 11.5978 27.1662 10.8535 26.8378 10.7104C26.0226 10.7795 25.0607 10.8146 23.9804 10.8146C23.0561 10.8146 22.174 10.7795 20.9471 10.7104C20.5764 10.8535 20.5764 11.6706 20.8028 11.9153L21.4268 12.0446C22.0637 12.1839 22.3546 12.3558 22.3546 12.5303C22.3546 12.77 22.242 13.2494 22.0121 13.8581C21.4268 15.4432 20.8462 17.1237 19.9465 19.1079C19.1348 17.4588 18.1002 15.2374 17.4293 13.5908C17.2111 13.0122 17.136 12.8001 17.136 12.5303C17.136 12.3558 17.6486 12.1839 18.5061 12.0132L19.0574 11.9153C19.3248 11.776 19.353 10.7519 18.9471 10.7104C16.7628 10.7794 14.5777 10.8141 12.3925 10.8146H4.91232C3.35693 10.8146 2.17456 10.7795 0.656716 10.7104C0.277841 10.8824 0.277841 11.6354 0.534725 11.9153L1.21037 12.0897Z" fill="#FFEBDB"/>
<path d="M32.1376 11.8657C33.3916 11.8657 34.1001 12.6125 34.1001 13.7458C34.1001 14.0897 34.0262 14.4361 33.842 14.534C33.4279 14.7749 32.8367 14.8389 32.3195 14.8389H30.9518C29.76 14.8389 29.2486 14.8138 29.2486 14.3281C29.2486 13.2287 30.5823 11.8645 32.1388 11.8645L32.1376 11.8657ZM32.0989 24.9508C34.3194 24.9508 37.0677 23.9556 38.582 21.0451C38.582 20.4615 38.0202 20.1854 37.6178 20.2494C36.6173 21.832 35.205 22.0316 34.1716 22.0316C30.7301 22.0316 28.9471 19.5353 28.9471 16.9662C28.9471 16.419 29.0245 16.3513 29.8785 16.3513H36.9809C38.1375 16.3513 38.3181 15.8718 38.3181 15.2217C38.3181 12.5799 36.2419 10.2856 32.3898 10.2856C27.7683 10.2856 24.3971 13.6454 24.3971 17.964C24.3971 21.6977 27.1008 24.9508 32.0989 24.9508ZM47.7783 12.0854C48.4551 12.0854 49.0427 12.1105 49.5636 12.2121C50.3049 12.3514 50.9336 13.4571 50.9336 13.9968C50.9336 14.2729 50.9336 14.5791 50.8233 15.0259C50.6333 15.7112 49.377 18.1761 48.8609 19.1036C48.224 18.0104 46.7496 14.923 46.2311 13.7207C46.0129 13.2162 45.8968 12.797 45.8968 12.5912C45.8968 12.2121 46.5959 12.0854 47.7783 12.0854ZM39.3773 12.0854C40.0119 12.2523 40.3767 12.3916 40.8952 13.3806C42.7063 16.9487 44.5303 20.882 46.3026 24.7513C46.5279 24.9521 46.7859 24.9972 47.1566 24.9972C47.5237 24.9972 47.7783 24.9521 48.0058 24.7525C48.8621 23.0494 51.0791 18.4786 52.0444 16.7039C53.1588 18.8977 55.0754 22.9013 55.8555 24.7525C56.0783 24.9533 56.3364 24.9972 56.7047 24.9972C57.0789 24.9972 57.3393 24.9521 57.5586 24.7525C59.1311 21.0767 60.7874 17.4427 62.5262 13.8537C63.1186 12.5912 63.3743 12.2523 64.5954 12.0088L65.1185 11.9109C65.4106 11.5934 65.3332 10.8492 65.0048 10.7061C64.186 10.7751 63.2289 10.8103 62.1497 10.8103C61.1379 10.8051 60.1264 10.7703 59.1164 10.7061C58.741 10.8492 58.741 11.6662 58.9686 11.9109L59.5973 12.0402C60.2284 12.1795 60.5216 12.3514 60.5216 12.5259C60.5216 12.7656 60.4102 13.245 60.192 13.8537C59.5973 15.4388 59.0038 17.1193 58.1123 19.1036C57.3006 17.4544 56.266 15.233 55.5998 13.5864C55.3745 13.0078 55.3006 12.7957 55.3006 12.5259C55.3006 12.3514 55.8156 12.1795 56.673 12.0088L57.2243 11.9109C57.4847 11.7716 57.5234 10.7475 57.1141 10.7061C54.747 10.7751 52.889 10.8103 50.5594 10.8103H43.0781C41.659 10.8105 40.2401 10.7757 38.8225 10.7061C38.4554 10.878 38.4554 11.631 38.7134 11.9109L39.3773 12.0854Z" fill="#FFEBDB"/>
<path d="M71.079 11.8657C73.1822 11.8657 74.2203 14.7373 74.2613 18.0656C74.293 21.1505 73.5857 23.3757 71.4731 23.3757C69.3348 23.3757 68.1067 20.7326 68.1067 17.1407C68.1067 13.4107 69.4474 11.8645 71.079 11.8645V11.8657ZM71.079 24.9508C75.6279 24.9508 79.5937 22.5888 79.5937 17.5799C79.5937 12.7505 75.6619 10.2856 71.296 10.2856C66.9243 10.2856 62.7391 12.9903 62.7743 17.8937C62.8177 22.6177 66.6639 24.9508 71.079 24.9508Z" fill="#FFEBDB"/>
<path d="M85.9171 13.1924C86.1458 13.1924 86.4743 13.2301 87.3224 13.8777C87.7974 14.2919 88.2431 14.4977 88.7651 14.4977C89.9475 14.4977 91.1381 13.8476 91.1381 12.27C91.1381 10.976 90.1012 10.2494 89.0936 10.2494C87.544 10.2494 86.4743 11.3789 85.4679 11.9587C85.1746 11.896 85.0972 11.7918 85.0972 11.5496C85.0972 11.2434 85.1734 10.7677 85.2415 10.0762C85.0972 9.87286 84.8696 9.76367 84.5846 9.76367C83.4316 10.459 80.878 11.3789 79.1689 11.8295C78.9108 12.0303 78.9108 12.6478 79.1689 12.8548L79.6968 13.1636C80.397 13.5752 80.397 13.9844 80.397 15.3574V20.5282C80.397 22.9253 80.2481 23.2328 79.0246 23.3407L78.3197 23.4035C78.0217 23.6093 78.0217 24.4025 78.3584 24.6083C79.8145 24.5324 81.2723 24.4973 82.7301 24.5029C84.4661 24.5029 85.9511 24.533 87.7306 24.6071C88.0637 24.4025 88.0637 23.6093 87.7646 23.4035L86.5798 23.3081C85.3576 23.1989 85.2075 22.924 85.2075 20.5282V15.2532C85.2075 13.953 85.394 13.1924 85.9171 13.1924Z" fill="#FFEBDB"/>
<path d="M100.446 23.2902L99.9663 23.3968C99.6661 23.7043 99.7388 24.4197 100.111 24.5891C101.148 24.5214 102.477 24.4887 104.671 24.4887C106.818 24.4887 108.185 24.5214 109.33 24.5891C109.702 24.4573 109.778 23.634 109.477 23.3968L108.927 23.2889C107.966 23.1195 107.264 22.9425 106.745 22.5045C105.814 21.7176 102.554 17.0551 101.897 15.9595C101.706 15.6859 101.627 15.4825 101.627 15.3759C101.627 15.2755 101.666 15.1399 101.848 14.9291C102.369 14.4559 102.934 13.9326 104.336 12.9398C105.332 12.227 106.116 11.8856 106.819 11.745L107.999 11.5041C108.264 11.2367 108.228 10.4712 107.849 10.3055C105.669 10.6167 102.594 10.7849 100.851 10.7849H99.9663C99.5969 10.928 99.5558 11.676 99.8889 11.9835L100.818 12.1266C101.148 12.1542 101.517 12.2897 101.517 12.4654C101.517 12.6713 101.339 13.0453 100.63 13.8284L99.0796 15.5177C98.3359 16.3021 97.5582 16.474 96.9283 16.474C96.526 16.474 96.4063 16.3711 96.4063 15.9933V5.23889C96.4063 3.07771 96.4532 1.63692 96.526 0.23504C96.3805 0.0593341 96.1131 -0.00341797 95.8926 -0.00341797C93.9994 0.743332 91.746 1.57417 90.2294 1.90801C89.9666 2.11886 89.9666 2.73759 90.2294 2.93212L90.8581 3.28354C91.5959 3.69645 91.5959 4.0717 91.5959 5.44974V20.5153C91.5959 22.9124 91.4469 23.1872 90.1086 23.3291L89.4048 23.3968C89.1127 23.5976 89.1127 24.3883 89.4423 24.5891C90.9482 24.5173 92.4556 24.4838 93.963 24.4887C95.6685 24.4887 97.2216 24.5214 98.4121 24.5891C98.7406 24.3883 98.7406 23.5976 98.4473 23.3968L97.8585 23.3291C96.5565 23.1872 96.4063 22.9111 96.4063 20.5153V18.5323C96.4063 17.8759 96.594 17.709 96.8497 17.709C97.2216 17.709 97.5195 17.847 97.7834 18.2135L100.409 21.9222C100.705 22.3288 101.036 22.876 101.036 23.0241C101.036 23.1508 100.818 23.2161 100.446 23.2902Z" fill="#FFEBDB"/>
</svg>
