<svg width="117" height="42" viewBox="0 0 117 42" fill="none" xmlns="http://www.w3.org/2000/svg">
<g clip-path="url(#clip0_2951_22638)">
<path fill-rule="evenodd" clip-rule="evenodd" d="M24.9047 0.0672201L2.46452 1.81163C0.648559 1.94581 0 3.22057 0 4.69661V30.1918C0 31.3324 0.389135 32.3388 1.36197 33.6135L6.6153 40.7254C7.45843 41.8659 8.30155 42.1343 9.92295 42.0001L35.995 40.3899C38.2001 40.2557 38.8487 39.1822 38.8487 37.3707V8.65508C38.8487 7.71578 38.5244 7.44741 37.4218 6.6423C37.357 6.57521 37.2921 6.57521 37.2273 6.50811L30.0931 1.34198C28.4069 0.000127501 27.6935 -0.134058 24.9047 0.0672201ZM10.5067 8.18543C8.36641 8.31962 7.91242 8.38671 6.68016 7.31323L3.63193 4.8308C3.30765 4.49533 3.43736 4.09278 4.28049 4.02569L25.8775 2.41546C27.6935 2.28128 28.6014 2.88511 29.3149 3.48895L33.0116 6.23974C33.2062 6.30684 33.5953 6.77649 33.0765 6.77649L10.7661 8.18543H10.5067ZM8.04213 37.1024V12.7477C8.04213 11.6742 8.36641 11.2046 9.27439 11.1375L34.8925 9.59438C35.7356 9.52728 36.1247 10.064 36.1247 11.1375V35.2909C36.1247 36.3643 35.9302 37.2365 34.5682 37.3036L10.0527 38.7797C8.69069 38.9139 8.04213 38.3771 8.04213 37.1024ZM32.2334 14.0896C32.3631 14.8276 32.2334 15.5656 31.52 15.6327L30.3525 15.9011V33.8819C29.3149 34.4857 28.4069 34.7541 27.6286 34.7541C26.3963 34.7541 26.0721 34.3516 25.0992 33.1439L17.3165 20.5305V32.6742L19.781 33.2781C19.781 33.2781 19.781 34.7541 17.8354 34.7541L12.3875 35.0896C12.2578 34.7541 12.3875 33.949 12.9063 33.8148L14.3331 33.4123V17.31L12.3875 17.1088C12.2578 16.3707 12.6469 15.2973 13.7494 15.2302L19.5865 14.8276L27.6286 27.5752V16.3036L25.5532 16.0353C25.4235 15.1631 26.0072 14.4921 26.7855 14.425L32.2334 14.0896Z" fill="#FFEBDB"/>
<path d="M56.1003 29.7893V18.719H56.2949L64.0128 29.7893H66.4773V13.4858H63.7533V24.5561H63.5588L55.8409 13.4858H53.3764V29.7893H56.1003ZM74.0654 29.9906C77.6325 29.9906 79.7727 27.5753 79.7727 23.5497C79.7727 19.5912 77.5676 17.1088 74.0654 17.1088C70.4984 17.1088 68.3581 19.5241 68.3581 23.5497C68.2933 27.5753 70.4984 29.9906 74.0654 29.9906ZM74.0654 27.6424C72.1846 27.6424 71.0821 26.1663 71.0821 23.5497C71.0821 21.0002 72.1846 19.4571 74.0654 19.4571C75.9462 19.4571 77.0488 20.9331 77.0488 23.5497C76.9839 26.1663 75.9462 27.6424 74.0654 27.6424ZM82.2373 14.4251V17.5114H80.3564V19.7254H82.2373V26.4347C82.2373 28.85 83.3398 29.7893 86.0638 29.7893C86.5826 29.7893 87.1015 29.7222 87.4906 29.6551V27.5082C87.1663 27.5753 86.9717 27.5753 86.5826 27.5753C85.4801 27.5753 84.9612 27.0385 84.9612 25.8309V19.7925H87.4906V17.5785H84.9612V14.4922H82.2373V14.4251ZM89.112 29.7893H91.8359V17.4443H89.112V29.7893ZM90.474 15.3644C91.3819 15.3644 92.0954 14.6264 92.0954 13.6871C92.0954 12.7478 91.3819 12.0098 90.474 12.0098C89.566 12.0098 88.8526 12.7478 88.8526 13.6871C88.8526 14.6264 89.566 15.3644 90.474 15.3644ZM99.2295 29.9906C102.797 29.9906 104.937 27.5753 104.937 23.5497C104.937 19.5912 102.732 17.1088 99.2295 17.1088C95.6624 17.1088 93.5222 19.5241 93.5222 23.5497C93.4573 27.5753 95.6624 29.9906 99.2295 29.9906ZM99.2295 27.6424C97.3487 27.6424 96.2461 26.1663 96.2461 23.5497C96.2461 21.0002 97.3487 19.4571 99.2295 19.4571C101.11 19.4571 102.213 20.9331 102.213 23.5497C102.148 26.1663 101.11 27.6424 99.2295 27.6424ZM106.558 29.7893H109.282V22.5433C109.282 20.7318 110.32 19.5912 111.876 19.5912C113.498 19.5912 114.276 20.5305 114.276 22.4091V29.7222H117V21.7382C117 18.7861 115.573 17.1088 112.914 17.1088C111.163 17.1088 109.931 17.981 109.347 19.3229H109.152V17.4443H106.558V29.7893Z" fill="#FFEBDB"/>
</g>
<defs>
<clipPath id="clip0_2951_22638">
<rect width="117" height="42" fill="white"/>
</clipPath>
</defs>
</svg>
