<svg width="519" height="123" viewBox="0 0 519 123" fill="none" xmlns="http://www.w3.org/2000/svg">
<g clip-path="url(#clip0_1706_18285)">
<path fill-rule="evenodd" clip-rule="evenodd" d="M31.5017 49.5995C55.0017 41.4995 59.0017 20.3995 56.0017 0.999518C56.0017 0.299518 56.6017 -0.200483 57.2017 -0.0004825C79.7017 10.9995 105.002 34.9995 105.002 70.9995C105.002 98.5995 83.6017 123 52.5017 123C41.4044 123.504 30.4549 120.299 21.3817 113.889C12.3084 107.48 5.62801 98.231 2.39491 87.6031C-0.838195 76.9751 -0.439884 65.5731 3.52697 55.1966C7.49383 44.8202 14.8033 36.0603 24.3017 30.2995C24.9017 29.8995 25.7017 30.2995 25.7017 30.9995C26.0017 34.6995 27.0017 43.9995 31.1017 49.5995H31.5017Z" fill="#FFEBDB"/>
<path fill-rule="evenodd" clip-rule="evenodd" d="M171.202 101.1L172.902 99.1L178.202 115.9L177.502 116.6C173.502 120.3 167.502 122.2 159.802 122.2H159.502C152.502 122.2 147.002 120.2 143.202 116.5C139.402 112.7 137.402 107 137.402 99.8V54H123.902V35.5H137.402V13.2H158.202V35.5H174.702V54H158.102V95.3C158.102 97.2 158.602 103.3 164.402 103.3C167.402 103.3 170.202 102.2 171.202 101V101.1ZM182.202 120.3V35.6H203.002V120.3H182.202ZM192.502 1C194.97 1.00008 197.383 1.73074 199.436 3.09988C201.49 4.46903 203.092 6.41539 204.041 8.69365C204.99 10.9719 205.243 13.4801 204.769 15.9021C204.295 18.3241 203.114 20.5515 201.376 22.3036C199.638 24.0556 197.42 25.254 195.002 25.7475C192.584 26.241 190.073 26.0077 187.788 25.077C185.502 24.1462 183.543 22.5596 182.157 20.5172C180.772 18.4748 180.022 16.0679 180.002 13.6C180.002 6.8 185.702 1 192.502 1ZM258.902 33.5C276.902 33.5 286.802 43.3 286.802 61.2V120.2H266.002V66.2C265.602 56.6 261.002 52.2 251.202 52.2C242.402 52.2 235.302 57.6 231.702 62.2V120.2H210.902V35.7H231.702V44.7C237.702 38.9 247.302 33.7 258.902 33.7V33.5ZM356.002 44.4V4.6H376.802V120.4H356.002V111.6C352.82 114.957 348.991 117.635 344.746 119.474C340.501 121.313 335.928 122.274 331.302 122.3C308.602 122.3 293.402 104.5 293.402 78C293.402 51.4 308.602 33.6 331.302 33.6C335.938 33.6211 340.521 34.5901 344.768 36.4474C349.016 38.3047 352.839 41.011 356.002 44.4ZM356.002 62.3C353.684 59.2809 350.722 56.8167 347.332 55.0868C343.941 53.3569 340.207 52.4049 336.402 52.3C323.502 52.3 314.902 62.6 314.902 78C314.902 93.3 323.502 103.6 336.402 103.6C343.902 103.6 352.102 99.6 356.002 93.8V62.3ZM425.402 33.6C450.002 33.6 467.102 52.6 467.102 79.6V85.3H404.202C406.302 97.2 415.702 104.8 428.502 104.8C436.602 104.8 445.502 101.3 450.602 96.2L452.002 95L461.902 109.2L460.902 110.1C451.532 118.408 439.316 122.779 426.802 122.3C400.802 122.3 382.502 104 382.502 77.9C382.3 72.1376 383.264 66.3938 385.337 61.0133C387.41 55.6328 390.549 50.7266 394.565 46.5892C398.581 42.4518 403.391 39.1685 408.708 36.9365C414.024 34.7044 419.736 33.5695 425.502 33.6H425.402ZM404.102 69.6H446.802C445.602 56.9 435.102 51.1 425.402 51.1C410.802 51.1 405.302 62.1 404.102 69.7V69.6ZM517.402 33.6H518.902V54.6L517.102 54.3C515.602 54 513.702 53.8 511.802 53.8C505.102 53.8 495.802 58.5 492.302 63.5V120.2H471.502V35.6H492.402V45C499.302 37.8 508.402 33.6 517.402 33.6Z" fill="#FFEBDB"/>
</g>
<defs>
<clipPath id="clip0_1706_18285">
<rect width="519" height="123" fill="white"/>
</clipPath>
</defs>
</svg>
