<svg width="2280" height="622" viewBox="0 0 2280 622" fill="none" xmlns="http://www.w3.org/2000/svg">
<path fill-rule="evenodd" clip-rule="evenodd" d="M1395.61 128.594H1095.06V226.606H1195.51V436.301H1293.5V226.606H1395.61V128.594ZM1689.28 435.497L1594.56 128.594H1475.29L1380.59 435.497H1478.59L1534.93 217.281L1591.29 435.497H1689.28ZM1989.32 128.594H1688.79V226.606H1789.24V436.301H1887.21V226.606H1989.32V128.594ZM2279.7 435.497L2184.96 128.594H2065.73L1970.98 435.497H2069.02L2125.36 217.281L2181.69 435.497H2279.7ZM364.328 457.689C385.677 367.004 401.513 278.485 401.513 278.485C401.513 278.485 409.476 249.29 393.549 229.382C377.622 209.473 328.519 216.114 328.519 216.114C328.519 216.114 252.244 217.022 174.503 226.386C105.27 234.738 34.6239 248.473 8.58065 253.752C3.13597 272.358 0.345865 291.64 0.292969 311.026C0.292969 447.663 136.839 563.587 326.405 604.999C336.353 568.839 351.307 512.927 364.328 457.689Z" fill="#FFEBDB"/>
<path fill-rule="evenodd" clip-rule="evenodd" d="M505.233 400.608C504.325 290.715 507.399 188.228 507.399 188.228C507.399 188.228 503.871 172.794 513.715 165.246C523.793 157.529 547.216 157.71 547.216 157.71C547.216 157.71 638.082 160.265 739.908 173.326C814.251 182.884 894.637 198.215 930.94 205.465C864.197 86.0392 687.445 0.698242 479.864 0.698242C271.466 0.698242 94.2083 86.7266 28.0625 206.853C59.8903 200.446 146.412 183.572 226.085 173.339C327.91 160.278 418.751 157.723 418.751 157.723C418.751 157.723 442.2 157.542 452.265 165.259C462.109 172.807 458.581 188.241 458.581 188.241C458.581 188.241 461.668 290.728 460.747 400.621C460.021 484.847 457.427 573.184 455.844 620.925C463.795 621.185 471.784 621.327 479.851 621.327C490.02 621.327 500.097 621.055 510.11 620.64C508.54 572.807 505.959 484.665 505.233 400.608Z" fill="#FFEBDB"/>
<path fill-rule="evenodd" clip-rule="evenodd" d="M791.501 226.373C713.76 217.008 637.472 216.101 637.472 216.101C637.472 216.101 588.381 209.473 572.429 229.369C556.515 249.277 564.491 278.472 564.491 278.472C564.491 278.472 580.314 366.991 601.662 457.675C614.516 512.265 629.275 567.49 639.223 603.689C825.728 561.187 959.433 446.197 959.433 311.013C959.433 290.962 956.386 271.404 950.783 252.416C920.719 246.411 855.494 234.09 791.501 226.373Z" fill="#FFEBDB"/>
</svg>
