<svg width="595" height="195" viewBox="0 0 595 195" fill="none" xmlns="http://www.w3.org/2000/svg">
<path d="M85.4992 194.5C84.3992 194.5 83.3992 194.2 82.3992 193.7L3.39922 149.2C1.39922 148.1 0.199219 146.1 0.199219 143.8V6.90019C0.199219 3.50019 2.89922 0.700195 6.39922 0.700195H164.499C167.899 0.700195 170.699 3.40019 170.699 6.90019V143.8C170.699 146 169.399 148.1 167.499 149.2L88.4992 193.7C87.4992 194.3 86.5992 194.5 85.4992 194.5ZM12.6992 140.3L85.4992 181.3L158.399 140.3V13.1002H12.6992V140.3Z" fill="#FFEBDB"/>
<path d="M85.4992 132.6C84.3992 132.6 83.3992 132.3 82.3992 131.8L57.3992 117.6C55.3992 116.5 54.1992 114.5 54.1992 112.2V86.2002H66.5992V108.5L85.4992 119.1L107.499 106.7L113.599 117.5L88.5992 131.7C87.4992 132.3 86.5992 132.6 85.4992 132.6Z" fill="#FFEBDB"/>
<path d="M85.4977 163.6C84.3977 163.6 83.3976 163.3 82.3976 162.8L30.2977 133.5C28.2977 132.4 27.0977 130.3 27.0977 128.1V60.9998C27.0977 57.5998 29.7977 54.7998 33.2977 54.7998H109.698V67.1998H39.4977V124.6L85.2977 150.4L131.098 124.6V97.6998H143.698V128C143.698 130.2 142.398 132.3 140.498 133.4L88.3976 162.7C87.4976 163.4 86.5977 163.6 85.4977 163.6Z" fill="#FFEBDB"/>
<path d="M143.698 73.9998H131.298V40.1998H49.0977V27.7998H137.398C140.798 27.7998 143.598 30.4998 143.598 33.9998V73.9998H143.698ZM229.498 86.7998C229.498 60.2998 249.198 39.8998 276.298 39.8998C292.598 39.8998 306.998 47.9998 314.798 60.7998L297.098 71.0998C293.098 64.1998 285.298 59.9998 276.298 59.9998C260.398 59.9998 250.098 70.6998 250.098 86.7998C250.098 103 260.398 113.6 276.298 113.6C285.398 113.6 293.298 109.5 297.098 102.5L314.798 112.8C307.198 125.5 292.698 133.6 276.298 133.6C249.198 133.6 229.498 113.3 229.498 86.7998ZM491.998 113.5V133.5H431.198V39.8998H491.998V59.8998H452.598V75.8998H487.298V96.1998H452.598V113.3H491.998V113.5ZM390.598 99.2998C400.898 94.0998 407.898 83.4998 407.898 72.0998C407.898 54.1998 393.598 39.8998 375.898 39.8998H338.398V133.6H359.798V102.9H369.998L387.598 133.6H410.598L390.598 99.2998ZM375.798 84.0998H359.798V59.9998H375.798C381.598 59.9998 386.398 65.2998 386.398 72.0998C386.398 78.8998 381.598 84.0998 375.798 84.0998ZM549.598 39.8998H515.198V133.3H549.598C575.298 133.3 594.998 113 594.998 86.4998C594.998 60.1998 575.398 39.8998 549.598 39.8998ZM549.598 113.5H536.598V59.9998H549.598C564.198 59.9998 574.398 70.5998 574.398 86.6998C574.498 102.7 564.398 113.5 549.598 113.5Z" fill="#FFEBDB"/>
</svg>
