<svg width="197" height="146" viewBox="0 0 197 146" fill="none" xmlns="http://www.w3.org/2000/svg">
<path d="M197.829 178H110.829V104.949H91.2783V91.8008H0V-3H110.829V-43H197.829V178Z" fill="url(#paint0_linear_3235_23548)"/>
<path d="M9.61349 35.8519H6.1609V34.3745H14.7362V35.8519H11.2675V45.1337H9.61349V35.8519ZM20.3479 36.8475C21.8895 36.8475 22.9173 37.795 22.9173 39.6738V45.1337H21.3114V40.0592C21.3114 38.7906 20.7815 38.2446 19.7537 38.2446C18.5975 38.2446 17.7303 39.3366 17.7303 40.9424V45.1337H16.1245V33.5716H17.7303V37.0081C17.7303 37.538 17.7143 38.068 17.6982 38.5979H17.7464C18.0194 37.6665 18.8866 36.8475 20.3479 36.8475ZM31.8557 40.7979C31.8557 40.9746 31.8397 41.2154 31.8236 41.4403H26.3155C26.3476 43.0782 27.1506 43.9293 28.4192 43.9293C29.6236 43.9293 30.1856 43.1746 30.2659 42.4038H31.7754C31.6791 43.9133 30.4908 45.2943 28.4031 45.2943C26.1228 45.2943 24.6615 43.8009 24.6615 41.087C24.6615 38.3891 26.2995 36.8475 28.3389 36.8475C30.4586 36.8475 31.8557 38.3088 31.8557 40.7979ZM28.3389 38.1483C27.2951 38.1483 26.5082 38.8709 26.3476 40.3162H30.2659C30.1856 38.8227 29.4148 38.1483 28.3389 38.1483ZM38.7889 43.8009H38.7568L38.5319 45.1337H37.2954V33.5716H38.9013V37.2008C38.9013 37.7147 38.9013 38.084 38.8852 38.5497H38.9334C39.1422 37.7307 39.9933 36.8475 41.4385 36.8475C43.3977 36.8475 44.843 38.2928 44.843 40.9746C44.843 43.6403 43.3977 45.2943 41.278 45.2943C39.929 45.2943 39.1101 44.5074 38.7889 43.8009ZM43.1889 41.0549C43.1889 39.2242 42.2897 38.1643 41.0531 38.1643C39.8487 38.1643 38.9013 39.1921 38.9013 40.9906V41.36C38.9013 42.9979 39.8166 43.9775 40.9728 43.9775C42.3057 43.9775 43.1889 42.8374 43.1889 41.0549ZM53.4658 40.7979C53.4658 40.9746 53.4497 41.2154 53.4337 41.4403H47.9256C47.9577 43.0782 48.7606 43.9293 50.0293 43.9293C51.2336 43.9293 51.7957 43.1746 51.876 42.4038H53.3855C53.2891 43.9133 52.1008 45.2943 50.0132 45.2943C47.7329 45.2943 46.2715 43.8009 46.2715 41.087C46.2715 38.3891 47.9095 36.8475 49.949 36.8475C52.0687 36.8475 53.4658 38.3088 53.4658 40.7979ZM49.949 38.1483C48.9052 38.1483 48.1183 38.8709 47.9577 40.3162H51.876C51.7957 38.8227 51.0249 38.1483 49.949 38.1483ZM54.7683 42.6447H56.342C56.3902 43.6082 56.9844 44.0257 58.0763 44.0257C59.1202 44.0257 59.6822 43.56 59.6822 42.9819C59.6822 42.195 59.1844 42.0665 57.9479 41.7293C56.1654 41.2476 54.9128 40.9424 54.9128 39.2081C54.9128 37.7468 56.2778 36.8475 58.0282 36.8475C60.0355 36.8475 61.2238 37.7789 61.1596 39.4169H59.618C59.6019 38.5497 59.0399 38.1001 58.0442 38.1001C57.161 38.1001 56.5026 38.5015 56.5026 39.0797C56.5026 39.8826 57.0807 40.0271 58.2048 40.3322C60.1158 40.7979 61.2881 41.1833 61.2881 42.8374C61.2881 44.2987 60.0034 45.2943 58.0121 45.2943C56.0369 45.2943 54.7683 44.4432 54.7683 42.6447ZM63.3679 42.9337V38.357H62.2599V37.0563H62.6934C63.3197 37.0563 63.4803 36.8796 63.4803 36.0285V34.3745H64.9737V37.0081H67.0935V38.357H64.9737V42.6447C64.9737 43.6403 65.2949 43.9133 66.0497 43.9133C66.4511 43.9133 66.7884 43.833 67.0935 43.6885V45.0213C66.7884 45.1658 66.2905 45.2943 65.6482 45.2943C64.0263 45.2943 63.3679 44.6359 63.3679 42.9337Z" fill="#2C0B21"/>
<path d="M168.866 66.7492C169.159 65.5058 169.646 64.3476 170.329 63.2749C171.036 62.1777 171.865 61.239 172.816 60.4588C173.767 59.6543 174.84 59.0203 176.034 58.5571C177.229 58.0939 178.46 57.8622 179.728 57.8622C180.825 57.8622 181.776 58.0085 182.581 58.3011C183.385 58.5693 184.031 58.9472 184.519 59.4348C185.031 59.8981 185.372 60.4345 185.543 61.044C185.714 61.6535 185.726 62.2874 185.58 62.9457C185.311 64.1404 184.616 65.0791 183.495 65.7618C182.373 66.4444 180.752 66.7858 178.631 66.7858C177.802 66.7858 177.046 66.737 176.363 66.6395C175.681 66.5176 175.047 66.4079 174.462 66.3103C173.998 68.4071 174.108 70.0529 174.791 71.2475C175.474 72.4178 176.485 73.003 177.826 73.003C178.899 73.003 179.887 72.6616 180.789 71.979C181.715 71.2963 182.617 70.2479 183.495 68.8338L184.629 69.5652C183.215 72.0277 181.776 73.8807 180.313 75.1241C178.875 76.3676 177.229 76.9893 175.376 76.9893C174.133 76.9893 173.023 76.7333 172.048 76.2213C171.097 75.7093 170.317 75.0022 169.707 74.1001C169.122 73.198 168.744 72.1131 168.574 70.8452C168.403 69.5774 168.501 68.2121 168.866 66.7492ZM179.179 59.5445C178.277 59.5445 177.424 60.0931 176.619 61.1903C175.815 62.2874 175.169 63.7259 174.681 65.5058C176.437 65.6033 177.778 65.3229 178.704 64.6646C179.655 64.0063 180.252 63.1164 180.496 61.9949C180.691 61.2147 180.655 60.6173 180.386 60.2028C180.118 59.764 179.716 59.5445 179.179 59.5445Z" fill="#2C0B21"/>
<path d="M157.61 65.5058C157.317 66.7005 157.22 67.7611 157.317 68.6876C157.415 69.5897 157.622 70.3577 157.939 70.9916C158.28 71.6011 158.719 72.0644 159.255 72.3813C159.816 72.6983 160.414 72.8567 161.048 72.8567C162.096 72.8567 163.035 72.5032 163.864 71.7962C164.692 71.0647 165.57 69.931 166.497 68.395L167.63 69.1996C166.972 70.3211 166.302 71.3573 165.619 72.3082C164.936 73.259 164.217 74.088 163.461 74.7951C162.705 75.4777 161.889 76.0141 161.011 76.4042C160.158 76.7943 159.219 76.9894 158.195 76.9894C156.976 76.9894 155.879 76.7334 154.903 76.2214C153.928 75.7093 153.148 75.0023 152.563 74.1002C151.978 73.1981 151.6 72.1131 151.429 70.8453C151.258 69.5775 151.356 68.1999 151.722 66.7127C152.039 65.3961 152.551 64.2014 153.258 63.1286C153.989 62.0315 154.842 61.105 155.818 60.3492C156.817 59.569 157.902 58.9716 159.073 58.5572C160.267 58.1183 161.474 57.8989 162.693 57.8989C164.546 57.8989 165.96 58.2768 166.936 59.0326C167.911 59.764 168.386 60.6661 168.362 61.7389C168.362 62.7385 168.069 63.5675 167.484 64.2258C166.923 64.8597 166.155 65.1767 165.18 65.1767C164.327 65.1767 163.644 64.9694 163.132 64.5549C162.644 64.1161 162.388 63.6041 162.364 63.0189C162.34 62.4094 162.388 61.9461 162.51 61.6292C162.657 61.3122 162.718 60.9343 162.693 60.4955C162.669 60.2029 162.547 59.9835 162.328 59.8372C162.132 59.6665 161.864 59.5812 161.523 59.5812C160.84 59.5812 160.133 60.0566 159.402 61.0075C158.695 61.9583 158.097 63.4578 157.61 65.5058Z" fill="#2C0B21"/>
<path d="M135.41 76.4774C135.093 76.6236 134.789 76.7334 134.496 76.8065C134.228 76.8553 133.911 76.8796 133.545 76.8796C132.716 76.8796 131.973 76.709 131.314 76.3676C130.656 76.0019 130.278 75.4412 130.181 74.6853C130.181 74.539 130.181 74.3684 130.181 74.1733C130.205 73.9783 130.254 73.7954 130.327 73.6248C130.863 72.1131 131.351 70.699 131.79 69.3824C132.253 68.0658 132.68 66.798 133.07 65.5789C133.241 64.8963 133.387 64.2624 133.509 63.6772C133.631 63.0677 133.692 62.5679 133.692 62.1778C133.692 61.934 133.618 61.7145 133.472 61.5195C133.326 61.3 133.082 61.1903 132.741 61.1903C132.497 61.1903 132.168 61.4341 131.753 61.9218C131.363 62.4094 130.936 63.0067 130.473 63.7138L129.449 62.9458C130.424 61.4585 131.4 60.2517 132.375 59.3252C133.375 58.3743 134.399 57.8989 135.447 57.8989C136.495 57.8989 137.288 58.1671 137.824 58.7034C138.385 59.2155 138.69 59.7031 138.738 60.1663C138.787 60.7271 138.702 61.2879 138.482 61.8486C138.263 62.4094 137.995 63.0677 137.678 63.8235L138.373 64.2258C139.421 62.3972 140.409 60.9221 141.335 59.8006C142.286 58.6547 143.493 58.0208 144.956 57.8989C146.15 57.8989 147.199 58.289 148.101 59.0692C149.003 59.8494 149.491 60.8002 149.564 61.9218C149.612 62.7507 149.515 63.6285 149.271 64.5549C149.027 65.4814 148.637 66.7249 148.101 68.2853C147.638 69.7238 147.296 70.7356 147.077 71.3207C146.882 71.9059 146.784 72.3569 146.784 72.6739C146.784 72.8933 146.87 73.0884 147.04 73.259C147.211 73.4297 147.418 73.5272 147.662 73.5516C147.906 73.5516 148.259 73.2834 148.723 72.747C149.186 72.1863 149.625 71.5645 150.039 70.8819L151.063 71.6499C150.454 72.6495 149.783 73.6004 149.052 74.5025C148.345 75.4046 147.577 76.0873 146.748 76.5505C146.48 76.6968 146.175 76.7943 145.833 76.8431C145.516 76.9162 145.2 76.9528 144.883 76.9528C144.517 76.9528 144.115 76.8796 143.676 76.7334C143.261 76.5871 142.871 76.392 142.505 76.1482C142.14 75.9044 141.823 75.6118 141.555 75.2705C141.311 74.9048 141.164 74.5147 141.116 74.1002C141.091 73.5394 141.189 72.8446 141.408 72.0156C141.652 71.1622 142.067 69.8944 142.652 68.2121C143.188 66.7492 143.578 65.5668 143.822 64.6647C144.066 63.7382 144.175 62.9945 144.151 62.4338C144.127 61.9949 143.944 61.6658 143.603 61.4463C143.261 61.2025 142.883 61.0806 142.469 61.0806C141.884 61.0806 141.347 61.3854 140.86 61.9949C140.372 62.6044 139.848 63.4578 139.287 64.5549C139.092 64.9694 138.848 65.5546 138.556 66.3104C138.287 67.0662 137.995 67.8952 137.678 68.7973C137.288 70.0407 136.873 71.3573 136.434 72.747C136.02 74.1368 135.679 75.3802 135.41 76.4774Z" fill="#2C0B21"/>
<path d="M112.936 66.7492C113.228 65.5058 113.716 64.3476 114.398 63.2749C115.105 62.1777 115.934 61.239 116.885 60.4588C117.836 59.6543 118.909 59.0203 120.104 58.5571C121.298 58.0939 122.53 57.8622 123.797 57.8622C124.895 57.8622 125.845 58.0085 126.65 58.3011C127.455 58.5693 128.101 58.9472 128.588 59.4348C129.1 59.8981 129.442 60.4345 129.612 61.044C129.783 61.6535 129.795 62.2874 129.649 62.9457C129.381 64.1404 128.686 65.0791 127.564 65.7618C126.443 66.4444 124.821 66.7858 122.7 66.7858C121.871 66.7858 121.115 66.737 120.433 66.6395C119.75 66.5176 119.116 66.4079 118.531 66.3103C118.068 68.4071 118.178 70.0529 118.86 71.2475C119.543 72.4178 120.555 73.003 121.896 73.003C122.968 73.003 123.956 72.6616 124.858 71.979C125.784 71.2963 126.687 70.2479 127.564 68.8338L128.698 69.5652C127.284 72.0277 125.845 73.8807 124.383 75.1241C122.944 76.3676 121.298 76.9893 119.445 76.9893C118.202 76.9893 117.093 76.7333 116.117 76.2213C115.166 75.7093 114.386 75.0022 113.777 74.1001C113.192 73.198 112.814 72.1131 112.643 70.8452C112.472 69.5774 112.57 68.2121 112.936 66.7492ZM123.249 59.5445C122.347 59.5445 121.493 60.0931 120.689 61.1903C119.884 62.2874 119.238 63.7259 118.75 65.5058C120.506 65.6033 121.847 65.3229 122.773 64.6646C123.724 64.0063 124.322 63.1164 124.565 61.9949C124.76 61.2147 124.724 60.6173 124.456 60.2028C124.187 59.764 123.785 59.5445 123.249 59.5445Z" fill="#2C0B21"/>
<path d="M106.899 52.0473C107.119 51.072 107.582 50.3284 108.289 49.8164C108.996 49.3044 109.764 49.0484 110.593 49.0484C111.812 49.0484 112.739 49.4873 113.372 50.365C114.031 51.2183 114.214 52.2058 113.921 53.3273C113.702 54.2538 113.263 54.973 112.604 55.485C111.97 55.9727 111.202 56.2165 110.3 56.2165C109.033 56.2165 108.082 55.7776 107.448 54.8999C106.838 54.0222 106.655 53.0713 106.899 52.0473ZM104.522 61.1903C104.303 61.2146 103.986 61.4706 103.571 61.9583C103.181 62.4459 102.754 63.031 102.291 63.7137L101.304 62.9457C102.255 61.4584 103.181 60.2516 104.083 59.3251C105.01 58.3742 106.046 57.8988 107.192 57.8988C108.313 57.8988 109.24 58.2523 109.971 58.9594C110.703 59.642 111.105 60.3247 111.178 61.0074C111.251 61.812 111.105 62.7019 110.739 63.6771C110.398 64.628 109.886 66.0543 109.203 67.956C108.667 69.4189 108.301 70.5161 108.106 71.2475C107.935 71.9546 107.862 72.4666 107.887 72.7835C107.911 72.9542 108.009 73.1249 108.179 73.2955C108.374 73.4662 108.594 73.5515 108.838 73.5515C109.081 73.5515 109.398 73.3199 109.788 72.8567C110.178 72.369 110.642 71.7107 111.178 70.8818L112.202 71.6498C111.519 72.8201 110.825 73.8197 110.118 74.6487C109.435 75.4776 108.703 76.1116 107.923 76.5504C107.679 76.6967 107.387 76.7942 107.045 76.843C106.729 76.9161 106.412 76.9527 106.095 76.9527C105.656 76.9527 105.205 76.8796 104.741 76.7333C104.303 76.587 103.888 76.3919 103.498 76.1481C103.132 75.8799 102.815 75.5752 102.547 75.2338C102.279 74.8681 102.133 74.4658 102.108 74.027C102.06 73.4418 102.12 72.7835 102.291 72.0521C102.486 71.2963 102.925 70.065 103.608 68.3583C104.29 66.676 104.802 65.3473 105.144 64.372C105.485 63.3724 105.644 62.6775 105.619 62.2874C105.595 61.9704 105.485 61.7144 105.29 61.5194C105.095 61.3243 104.839 61.2146 104.522 61.1903Z" fill="#2C0B21"/>
<path d="M92.941 60.1663C93.0141 60.7514 92.9532 61.3854 92.7581 62.068C92.5631 62.7507 92.2827 63.5675 91.917 64.5183L92.6484 64.9206C93.453 63.1408 94.1723 61.7633 94.8062 60.788C95.4645 59.7884 96.0862 59.0448 96.6713 58.5571C97.0371 58.2402 97.4272 58.0086 97.8416 57.8623C98.2805 57.6916 98.695 57.6063 99.0851 57.6063C99.9628 57.6063 100.645 57.8501 101.133 58.3377C101.645 58.8253 101.925 59.4227 101.974 60.1297C102.023 60.6417 101.974 61.1781 101.828 61.7389C101.682 62.2996 101.462 62.8117 101.17 63.2749C100.901 63.7381 100.572 64.1282 100.182 64.4452C99.7921 64.7378 99.3898 64.8841 98.9754 64.8841C98.4634 64.8841 98.0611 64.7134 97.7685 64.3721C97.5003 64.0063 97.2687 63.6162 97.0736 63.2018C96.903 62.836 96.7201 62.5557 96.525 62.3606C96.33 62.1412 96.1106 62.0315 95.8668 62.0315C95.5254 62.0315 95.1231 62.3362 94.6599 62.9457C94.1966 63.5553 93.5871 64.8109 92.8313 66.7126C92.5631 67.3953 92.2949 68.1633 92.0267 69.0167C91.7585 69.87 91.4903 70.7356 91.2221 71.6133C90.9783 72.4666 90.7467 73.32 90.5273 74.1733C90.3078 75.0266 90.1128 75.7947 89.9421 76.4773C89.6252 76.6236 89.3204 76.7333 89.0278 76.8065C88.7596 76.8552 88.4427 76.8796 88.0769 76.8796C87.248 76.8796 86.5044 76.7089 85.8461 76.3676C85.2122 76.0019 84.8464 75.4411 84.7489 74.6853C84.7489 74.539 84.7489 74.3684 84.7489 74.1733C84.7733 73.9783 84.8099 73.7954 84.8586 73.6247C86.0045 70.3576 86.8579 67.8464 87.4187 66.0909C87.9794 64.3111 88.2354 63.0067 88.1867 62.1777C88.1623 61.9339 88.0648 61.7145 87.8941 61.5194C87.7478 61.3244 87.5162 61.2269 87.1992 61.2269C86.9554 61.2513 86.6385 61.5073 86.2484 61.9949C85.8583 62.4581 85.4316 63.0311 84.9683 63.7138L83.9443 62.9457C84.9196 61.4585 85.8948 60.2516 86.8701 59.3251C87.8697 58.3743 88.8937 57.8988 89.9421 57.8988C90.9905 57.8988 91.7463 58.167 92.2096 58.7034C92.6728 59.2154 92.9166 59.703 92.941 60.1663Z" fill="#2C0B21"/>
<path d="M67.4297 66.7492C67.7223 65.5058 68.2099 64.3476 68.8926 63.2749C69.5996 62.1777 70.4286 61.239 71.3795 60.4588C72.3303 59.6543 73.4031 59.0203 74.5978 58.5571C75.7925 58.0939 77.0237 57.8622 78.2915 57.8622C79.3887 57.8622 80.3396 58.0085 81.1441 58.3011C81.9487 58.5693 82.5948 58.9472 83.0824 59.4348C83.5945 59.8981 83.9358 60.4345 84.1065 61.044C84.2771 61.6535 84.2893 62.2874 84.143 62.9457C83.8748 64.1404 83.18 65.0791 82.0584 65.7618C80.9369 66.4444 79.3155 66.7858 77.1944 66.7858C76.3654 66.7858 75.6096 66.737 74.9269 66.6395C74.2442 66.5176 73.6103 66.4079 73.0252 66.3103C72.5619 68.4071 72.6717 70.0529 73.3543 71.2475C74.037 72.4178 75.0488 73.003 76.3898 73.003C77.4626 73.003 78.45 72.6616 79.3521 71.979C80.2786 71.2963 81.1807 70.2479 82.0584 68.8338L83.1922 69.5652C81.778 72.0277 80.3396 73.8807 78.8767 75.1241C77.4382 76.3676 75.7925 76.9893 73.9395 76.9893C72.696 76.9893 71.5867 76.7333 70.6114 76.2213C69.6606 75.7093 68.8804 75.0022 68.2709 74.1001C67.6857 73.198 67.3078 72.1131 67.1371 70.8452C66.9665 69.5774 67.064 68.2121 67.4297 66.7492ZM77.743 59.5445C76.8409 59.5445 75.9875 60.0931 75.1829 61.1903C74.3783 62.2874 73.7322 63.7259 73.2446 65.5058C75.0001 65.6033 76.341 65.3229 77.2675 64.6646C78.2184 64.0063 78.8157 63.1164 79.0595 61.9949C79.2546 61.2147 79.218 60.6173 78.9498 60.2028C78.6816 59.764 78.2793 59.5445 77.743 59.5445Z" fill="#2C0B21"/>
<path d="M46.5103 85.8032C46.3884 85.8032 46.0959 85.8032 45.6326 85.8032C45.1938 85.8276 44.7061 85.8397 44.1697 85.8397C43.6577 85.8397 43.1457 85.8397 42.6337 85.8397C42.1217 85.8641 41.7438 85.8763 41.5 85.8763L42.012 84.0112C42.6215 84.0112 43.1214 83.9624 43.5115 83.8649C43.9016 83.7673 44.2429 83.4991 44.5355 83.0603C44.8524 82.6214 45.1572 81.9509 45.4498 81.0488C45.7667 80.1711 46.1446 78.9521 46.5835 77.3917L51.155 61.3C50.5454 61.6414 49.8871 62.0802 49.1801 62.6166C48.473 63.1286 47.7782 63.726 47.0955 64.4087L46.108 63.3846C47.0102 62.4825 47.9732 61.6414 48.9972 60.8612C50.0456 60.0566 50.9843 59.4471 51.8133 59.0326C52.1058 58.0817 52.3496 57.2893 52.5447 56.6554C52.7641 56.0215 52.9836 55.4851 53.203 55.0463C53.3737 54.7293 53.6418 54.4367 54.0076 54.1685C54.3977 53.876 54.8121 53.6322 55.251 53.4371C55.7143 53.2177 56.1897 53.0592 56.6773 52.9617C57.1893 52.8398 57.6404 52.7788 58.0305 52.7788C58.2499 52.7788 58.4206 52.8641 58.5425 53.0348C58.6888 53.1811 58.7253 53.3761 58.6522 53.62L57.3722 57.9354C57.5428 57.9111 57.7013 57.8989 57.8476 57.8989C58.0183 57.8989 58.1889 57.8989 58.3596 57.8989C61.3097 57.8989 63.4431 58.8863 64.7597 60.8612C66.1007 62.8361 66.3567 65.5302 65.5277 68.9436C65.3814 69.5531 65.1498 70.1992 64.8328 70.8819C64.5159 71.5645 64.1258 72.2228 63.6625 72.8567C63.2237 73.4907 62.7239 74.088 62.1631 74.6488C61.6023 75.1852 61.005 75.6362 60.3711 76.0019C59.6884 76.392 59.0545 76.6602 58.4693 76.8065C57.9086 76.9772 57.2503 77.0625 56.4945 77.0625C55.2754 77.0625 54.4342 76.6115 53.971 75.7093C53.5321 74.8072 53.3005 73.7589 53.2761 72.5642L50.0944 83.9746H55.3973L54.8121 85.8763C54.544 85.8763 54.0441 85.8641 53.3127 85.8397C52.5813 85.8397 51.7889 85.8397 50.9355 85.8397C50.0822 85.8397 49.241 85.8276 48.4121 85.8032C47.6075 85.8032 46.9736 85.8032 46.5103 85.8032ZM57.7379 59.4715C57.5916 59.4715 57.4453 59.4836 57.299 59.508C57.1527 59.5324 57.0186 59.5568 56.8967 59.5812L53.3127 72.3813C53.7028 72.9177 54.0807 73.3688 54.4464 73.7345C54.8121 74.1002 55.2632 74.283 55.7996 74.283C56.6042 74.283 57.36 73.7101 58.067 72.5642C58.7741 71.4183 59.3836 69.7847 59.8956 67.6635C60.5783 64.8353 60.7124 62.7629 60.2979 61.4463C59.8834 60.1297 59.0301 59.4715 57.7379 59.4715Z" fill="#2C0B21"/>
<path d="M30.7515 76.9894C30.5077 76.9894 30.2395 76.904 29.9469 76.7334C29.6787 76.5627 29.4227 76.3554 29.1789 76.1116C28.9595 75.8678 28.7888 75.6118 28.6669 75.3436C28.5694 75.0511 28.5694 74.7951 28.6669 74.5756C29.4959 73.9661 30.4589 73.2103 31.5561 72.3082C32.6776 71.3817 34.0186 70.1382 35.579 68.5778C35.262 67.5294 34.9572 66.542 34.6647 65.6155C34.3965 64.689 34.1892 63.9942 34.043 63.5309C33.8723 62.9945 33.7016 62.6166 33.5309 62.3972C33.3603 62.1778 33.153 62.0681 32.9092 62.0681C32.6654 62.1168 32.3119 62.4094 31.8486 62.9458C31.3854 63.4578 30.9222 64.0186 30.4589 64.6281L29.5812 63.8235C31.0197 61.678 32.2144 60.1663 33.1652 59.2886C34.1405 58.3865 35.0548 57.9354 35.9081 57.9354C36.2251 57.9354 36.4933 57.972 36.7127 58.0452C36.9565 58.1183 37.1638 58.2036 37.3344 58.3012C37.5782 58.4474 37.822 58.7278 38.0659 59.1423C38.3097 59.5324 38.5413 60.1054 38.7607 60.8612C38.9314 61.3732 39.1264 62.0193 39.3459 62.7995C39.5653 63.5797 39.7969 64.3965 40.0407 65.2498C41.1623 63.6406 42.0644 62.2509 42.747 61.0806C43.4541 59.9103 44.0514 58.8985 44.5391 58.0452C44.6122 58.0208 44.6975 57.9964 44.7951 57.972C44.917 57.9232 45.0267 57.8989 45.1242 57.8989C45.368 57.8989 45.6362 57.9842 45.9288 58.1549C46.2214 58.3255 46.4896 58.5328 46.7334 58.7766C46.9772 58.996 47.16 59.252 47.282 59.5446C47.4282 59.8128 47.4526 60.0566 47.3551 60.276C46.5261 60.8856 45.5265 61.678 44.3562 62.6532C43.2103 63.6041 41.8693 64.8231 40.3333 66.3104C40.6503 67.3588 40.9672 68.395 41.2842 69.419C41.6011 70.4186 41.8937 71.2232 42.1619 71.8327C42.2838 72.1253 42.4667 72.3813 42.7105 72.6007C42.9543 72.8202 43.1981 72.9299 43.4419 72.9299C43.7101 72.9299 44.088 72.6495 44.5756 72.0887C45.0633 71.5036 45.5265 70.8819 45.9654 70.2236L46.9528 70.9916C46.0751 72.235 45.2217 73.3322 44.3928 74.283C43.5882 75.2095 42.8202 75.9166 42.0888 76.4042C41.8693 76.5505 41.5889 76.6846 41.2476 76.8065C40.9063 76.904 40.6137 76.9528 40.3699 76.9528C40.0773 76.9528 39.8213 76.9284 39.6019 76.8796C39.3824 76.8309 39.1996 76.7699 39.0533 76.6968C38.7363 76.5261 38.456 76.2823 38.2121 75.9654C37.9683 75.624 37.7245 75.1242 37.4807 74.4659C37.2857 73.8808 37.0418 73.1615 36.7493 72.3082C36.4811 71.4548 36.2129 70.5771 35.9447 69.675C34.75 71.2842 33.8113 72.6373 33.1287 73.7345C32.446 74.8316 31.8243 75.8556 31.2635 76.8065C31.2147 76.8553 31.1416 76.8918 31.0441 76.9162C30.9465 76.965 30.849 76.9894 30.7515 76.9894Z" fill="#2C0B21"/>
<path d="M4.8252 76.8065L5.22749 75.0876C5.8614 75.0876 6.3734 75.0632 6.7635 75.0145C7.1536 74.9413 7.47056 74.7829 7.71437 74.539C7.98256 74.2709 8.20199 73.8808 8.37266 73.3687C8.56771 72.8567 8.77495 72.1497 8.99438 71.2476C9.6283 68.7363 10.25 66.1519 10.8595 63.4944C11.4935 60.8368 12.103 58.2646 12.6881 55.7777C12.9563 54.583 12.9563 53.8516 12.6881 53.5834C12.4199 53.2908 11.6397 53.1567 10.3475 53.1811L10.7864 51.4622C11.0058 51.4622 11.3716 51.4744 11.8836 51.4988C12.4199 51.4988 12.9685 51.511 13.5293 51.5354C14.1144 51.5354 14.6508 51.5476 15.1385 51.5719C15.6261 51.5719 15.943 51.5719 16.0893 51.5719C16.9427 51.5719 18.1008 51.5719 19.5636 51.5719C21.0509 51.5476 22.526 51.5354 23.9888 51.5354C25.4761 51.511 26.8171 51.4988 28.0117 51.4988C29.2308 51.4744 29.9988 51.4622 30.3158 51.4622C30.6327 51.4622 30.9497 51.4744 31.2666 51.4988C31.5836 51.4988 31.8152 51.511 31.9615 51.5354L30.4255 59.5812H28.6335L28.67 59.2886C28.9138 57.2162 28.5725 55.6924 27.646 54.7171C26.7439 53.7419 25.3054 53.2542 23.3305 53.2542H21.3191C20.7096 53.2542 20.1732 53.3274 19.7099 53.4737C19.2467 53.62 18.9297 53.8516 18.7591 54.1685L16.8208 62.4338H17.223C19.1979 62.385 20.612 62.0924 21.4654 61.556C22.3431 60.9953 23.0623 59.9469 23.6231 58.4109H25.2688C25.1713 58.7278 25.0494 59.1301 24.9031 59.6177C24.7812 60.1054 24.6471 60.6052 24.5008 61.1172C24.3546 61.6048 24.2205 62.0681 24.0986 62.5069C24.001 62.9214 23.9279 63.214 23.8791 63.3846C23.8304 63.5553 23.7572 63.8723 23.6597 64.3355C23.5622 64.7987 23.4524 65.3108 23.3305 65.8715C23.233 66.4323 23.1355 66.9931 23.038 67.5538C22.9404 68.0902 22.8551 68.5169 22.782 68.8338H21.2825C21.4532 67.371 21.2459 66.1763 20.6608 65.2498C20.1 64.3233 18.8322 63.8113 16.8573 63.7138H16.5282L15.0287 70.0407C14.663 71.5036 14.3704 72.5764 14.151 73.259C13.9316 73.9417 13.7365 74.4537 13.5659 74.7951C14.1754 74.8438 14.919 74.8804 15.7967 74.9048C16.6745 74.9291 17.6497 74.9413 18.7225 74.9413C20.7218 74.9413 22.3553 74.3684 23.6231 73.2225C24.9153 72.0522 26.0003 70.2967 26.878 67.9561L26.9146 67.8464H28.7066L26.366 76.6602C26.3172 76.6846 26.0734 76.709 25.6346 76.7334C25.2201 76.7577 24.6593 76.7821 23.9523 76.8065C23.2452 76.8065 22.4162 76.8065 21.4654 76.8065C20.5145 76.8065 19.4783 76.8065 18.3568 76.8065C16.3819 76.8065 14.7118 76.7943 13.3464 76.7699C11.9811 76.7212 10.7498 76.6968 9.65268 76.6968C8.65305 76.6968 7.77532 76.7212 7.01951 76.7699C6.28807 76.7943 5.55663 76.8065 4.8252 76.8065Z" fill="#2C0B21"/>
<path d="M174.872 47.3539C173.604 47.3539 172.446 47.1833 171.398 46.8419C170.374 46.4762 169.581 45.8789 169.02 45.0499C168.703 44.5867 168.508 44.0991 168.435 43.587C168.362 43.0507 168.411 42.5387 168.582 42.051C168.752 41.5634 169.033 41.1245 169.423 40.7344C169.813 40.3443 170.3 40.0518 170.886 39.8567L171.068 39.8933C171.532 40.8685 172.056 41.7463 172.641 42.5265C173.251 43.3067 173.86 43.9284 174.47 44.3916C174.884 44.7086 175.262 44.9402 175.603 45.0865C175.969 45.2084 176.335 45.2694 176.7 45.2694C176.969 45.2694 177.2 45.2084 177.395 45.0865C177.615 44.9402 177.761 44.7452 177.834 44.5013C177.932 44.0381 177.725 43.4042 177.212 42.5996C176.725 41.7706 175.872 40.7223 174.652 39.4544C173.824 38.5523 173.153 37.7721 172.641 37.1138C172.129 36.4555 171.727 35.8582 171.434 35.3218C171.142 34.7367 170.971 34.1881 170.922 33.6761C170.898 33.1641 170.947 32.6765 171.068 32.2132C171.239 31.5062 171.593 30.86 172.129 30.2749C172.665 29.6898 173.324 29.2265 174.104 28.8852C174.64 28.6414 175.323 28.4341 176.152 28.2634C177.005 28.0928 177.81 28.0074 178.566 28.0074C179.809 28.0074 180.833 28.1415 181.638 28.4097C182.467 28.6779 183.113 29.1168 183.576 29.7263C183.869 30.1164 184.051 30.5797 184.125 31.1161C184.222 31.6281 184.198 32.1279 184.051 32.6155C183.905 33.1031 183.649 33.542 183.283 33.9321C182.918 34.3222 182.43 34.5904 181.821 34.7367H181.638C181.174 33.8833 180.748 33.1641 180.358 32.5789C179.968 31.9938 179.577 31.5062 179.187 31.1161C178.724 30.6528 178.249 30.3237 177.761 30.1286C177.298 29.9336 176.908 29.836 176.591 29.836C176.249 29.836 175.957 29.897 175.713 30.0189C175.494 30.1408 175.36 30.348 175.311 30.6406C175.238 31.0795 175.396 31.6159 175.786 32.2498C176.201 32.8837 176.981 33.798 178.127 34.9927C178.883 35.8216 179.541 36.5774 180.102 37.2601C180.687 37.9428 181.126 38.5645 181.418 39.1253C181.808 39.9055 182.04 40.5882 182.113 41.1733C182.186 41.7585 182.162 42.368 182.04 43.0019C181.894 43.6846 181.625 44.2941 181.235 44.8305C180.87 45.3425 180.345 45.8057 179.663 46.2202C179.102 46.5616 178.383 46.8419 177.505 47.0614C176.627 47.2564 175.75 47.3539 174.872 47.3539Z" fill="#2C0B21"/>
<path d="M156.569 30.9698C156.642 31.5062 156.582 32.0426 156.386 32.579C156.216 33.091 155.972 33.6761 155.655 34.3344L156.313 34.627C157.337 32.774 158.374 31.2624 159.422 30.0921C160.495 28.8974 161.738 28.2269 163.152 28.0806C164.347 28.0806 165.334 28.4707 166.115 29.2509C166.895 30.0311 167.321 30.982 167.395 32.1035C167.419 32.9325 167.309 33.8224 167.065 34.7733C166.846 35.6998 166.468 36.931 165.932 38.467C165.468 39.9055 165.127 40.9173 164.908 41.5025C164.688 42.0876 164.579 42.5387 164.579 42.8556C164.579 43.0751 164.664 43.2823 164.835 43.4774C165.03 43.648 165.237 43.7456 165.456 43.7699C165.7 43.7456 166.054 43.4652 166.517 42.9288C166.98 42.3924 167.419 41.7707 167.833 41.0636L168.894 41.8316C168.285 42.8313 167.614 43.7943 166.883 44.7208C166.151 45.6229 165.383 46.2934 164.579 46.7323C164.286 46.8786 163.981 46.9883 163.664 47.0614C163.372 47.1346 163.055 47.1711 162.713 47.1711C162.323 47.1711 161.909 47.098 161.47 46.9517C161.055 46.8054 160.665 46.6104 160.3 46.3665C159.958 46.0984 159.654 45.7936 159.385 45.4522C159.142 45.0865 158.995 44.6964 158.947 44.2819C158.898 43.7212 158.995 43.0263 159.239 42.1974C159.483 41.3684 159.885 40.1128 160.446 38.4305C160.982 36.9432 161.397 35.7363 161.689 34.8098C162.006 33.8834 162.14 33.1397 162.092 32.579C162.043 32.1157 161.872 31.7988 161.58 31.6281C161.287 31.433 160.934 31.3355 160.519 31.3355C160.275 31.3355 159.995 31.4209 159.678 31.5915C159.385 31.7622 159.081 32.0426 158.764 32.4327C158.52 32.7253 158.264 33.1032 157.996 33.5664C157.727 34.0296 157.459 34.5295 157.191 35.0658C157.02 35.4803 156.789 36.0533 156.496 36.7847C156.228 37.4918 155.96 38.272 155.692 39.1253C155.228 40.5882 154.802 41.9414 154.412 43.1848C154.046 44.4039 153.717 45.562 153.424 46.6591C153.107 46.8298 152.839 46.9395 152.62 46.9883C152.4 47.037 152.108 47.0614 151.742 47.0614C150.913 47.0614 150.169 46.8907 149.511 46.5494C148.853 46.1837 148.487 45.6229 148.414 44.8671C148.389 44.7452 148.377 44.5867 148.377 44.3917C148.402 44.1966 148.45 44.0016 148.524 43.8065C149.06 42.2705 149.548 40.8808 149.986 39.6373C150.425 38.3939 150.791 37.3455 151.084 36.4922C151.401 35.5657 151.632 34.7855 151.778 34.1516C151.925 33.5176 151.986 33.03 151.961 32.6887C151.913 32.2498 151.742 31.9207 151.449 31.7012C151.157 31.4574 150.815 31.3355 150.425 31.3355C149.889 31.3355 149.365 31.6281 148.853 32.2132C148.365 32.774 147.816 33.6395 147.207 34.8098C147.012 35.2243 146.768 35.8095 146.476 36.5653C146.207 37.3211 145.915 38.1501 145.598 39.0522C145.208 40.2956 144.793 41.6122 144.354 43.0019C143.94 44.3917 143.599 45.6351 143.33 46.7323C143.013 46.8786 142.709 46.9883 142.416 47.0614C142.148 47.1102 141.831 47.1346 141.465 47.1346C140.636 47.1346 139.868 46.9639 139.161 46.6225C138.454 46.2568 138.101 45.6961 138.101 44.9402C138.101 44.794 138.101 44.6233 138.101 44.4282C138.125 44.2332 138.174 44.0503 138.247 43.8797C138.637 42.7094 139.039 41.5269 139.454 40.3322C139.893 39.1131 140.344 37.7844 140.807 36.3459C141.075 35.5413 141.282 34.8098 141.429 34.1516C141.575 33.4689 141.636 32.8959 141.611 32.4327C141.587 32.1889 141.49 31.9694 141.319 31.7744C141.173 31.5793 140.941 31.4818 140.624 31.4818C140.38 31.4818 140.063 31.7256 139.673 32.2132C139.283 32.7009 138.856 33.286 138.393 33.9687L137.369 33.2007C138.344 31.7134 139.32 30.5066 140.295 29.5801C141.295 28.6292 142.319 28.1538 143.367 28.1538C144.464 28.1538 145.256 28.3976 145.744 28.8852C146.256 29.3485 146.536 29.8117 146.585 30.2749C146.683 30.9332 146.622 31.5428 146.402 32.1035C146.183 32.6643 145.915 33.3226 145.598 34.0784L146.293 34.4076C147.365 32.4083 148.377 30.8723 149.328 29.7995C150.303 28.7024 151.486 28.1538 152.876 28.1538C154.143 28.1538 155.058 28.4829 155.618 29.1412C156.179 29.7995 156.496 30.409 156.569 30.9698Z" fill="#2C0B21"/>
<path d="M132.144 22.3022C132.364 21.327 132.827 20.5834 133.534 20.0714C134.241 19.5593 135.009 19.3033 135.838 19.3033C137.057 19.3033 137.984 19.7422 138.618 20.6199C139.276 21.4733 139.459 22.4607 139.166 23.5823C138.947 24.5087 138.508 25.228 137.85 25.74C137.216 26.2276 136.448 26.4714 135.546 26.4714C134.278 26.4714 133.327 26.0326 132.693 25.1548C132.083 24.2771 131.901 23.3262 132.144 22.3022ZM129.767 31.4452C129.548 31.4696 129.231 31.7256 128.816 32.2132C128.426 32.7008 128 33.286 127.536 33.9687L126.549 33.2006C127.5 31.7134 128.426 30.5065 129.328 29.58C130.255 28.6292 131.291 28.1537 132.437 28.1537C133.558 28.1537 134.485 28.5073 135.216 29.2143C135.948 29.897 136.35 30.5797 136.423 31.2623C136.496 32.0669 136.35 32.9568 135.984 33.9321C135.643 34.8829 135.131 36.3092 134.448 38.211C133.912 39.6739 133.546 40.771 133.351 41.5025C133.181 42.2095 133.107 42.7215 133.132 43.0385C133.156 43.2091 133.254 43.3798 133.424 43.5505C133.619 43.7211 133.839 43.8065 134.083 43.8065C134.326 43.8065 134.643 43.5749 135.033 43.1116C135.424 42.624 135.887 41.9657 136.423 41.1367L137.447 41.9047C136.765 43.075 136.07 44.0747 135.363 44.9036C134.68 45.7326 133.949 46.3665 133.168 46.8054C132.925 46.9517 132.632 47.0492 132.291 47.0979C131.974 47.1711 131.657 47.2077 131.34 47.2077C130.901 47.2077 130.45 47.1345 129.987 46.9882C129.548 46.8419 129.133 46.6469 128.743 46.4031C128.377 46.1349 128.06 45.8301 127.792 45.4888C127.524 45.1231 127.378 44.7208 127.353 44.2819C127.305 43.6968 127.366 43.0385 127.536 42.307C127.731 41.5512 128.17 40.32 128.853 38.6133C129.536 36.931 130.048 35.6022 130.389 34.6269C130.73 33.6273 130.889 32.9325 130.864 32.5424C130.84 32.2254 130.73 31.9694 130.535 31.7743C130.34 31.5793 130.084 31.4696 129.767 31.4452Z" fill="#2C0B21"/>
<path d="M122.95 43.8066C123.194 43.8066 123.547 43.5384 124.011 43.002C124.474 42.4412 124.913 41.8195 125.327 41.1368L126.388 41.9048C125.778 42.9044 125.12 43.8431 124.413 44.7208C123.73 45.5986 122.974 46.2691 122.145 46.7323C121.877 46.8786 121.536 46.9883 121.121 47.0614C120.707 47.159 120.244 47.2077 119.732 47.2077C118.951 47.2077 118.269 46.9883 117.684 46.5494C117.123 46.0862 116.83 45.5376 116.806 44.9037C116.806 44.4161 116.916 43.9041 117.135 43.3677C117.379 42.8313 117.635 42.2705 117.903 41.6854L117.098 41.3197C116.635 42.1242 116.172 42.8923 115.709 43.6237C115.245 44.3307 114.746 44.9525 114.209 45.4889C113.697 46.0252 113.137 46.4519 112.527 46.7689C111.942 47.0858 111.296 47.2443 110.589 47.2443C109.613 47.2443 108.797 47.0736 108.138 46.7323C107.504 46.391 106.992 45.8546 106.602 45.1231C106.383 44.7087 106.237 44.1845 106.163 43.5505C106.09 42.9166 106.078 42.234 106.127 41.5025C106.2 40.7467 106.31 39.9543 106.456 39.1254C106.627 38.2964 106.846 37.4918 107.114 36.7116C107.651 35.1512 108.212 33.8712 108.797 32.8716C109.406 31.8476 110.004 31.0308 110.589 30.4213C111.32 29.6654 112.064 29.1047 112.82 28.739C113.575 28.3732 114.295 28.1904 114.977 28.1904C116.489 28.1904 117.55 28.6658 118.159 29.6167C118.769 30.5432 119.159 31.6403 119.329 32.9081C119.427 32.64 119.524 32.3596 119.622 32.067C119.719 31.7744 119.817 31.4818 119.914 31.1893C120.012 30.9455 120.146 30.6651 120.317 30.3481C120.512 30.0068 120.829 29.6898 121.268 29.3973C121.877 29.0072 122.56 28.7024 123.316 28.483C124.096 28.2635 124.693 28.1538 125.108 28.1538C125.547 28.1538 125.9 28.3123 126.168 28.6292C126.436 28.9218 126.485 29.3607 126.315 29.9458C125.412 32.2864 124.681 34.2491 124.12 35.8339C123.584 37.3943 123.145 38.6987 122.804 39.7471C122.584 40.4298 122.401 41.0515 122.255 41.6122C122.133 42.1486 122.072 42.5753 122.072 42.8923C122.072 43.1117 122.158 43.3189 122.328 43.514C122.499 43.709 122.706 43.8066 122.95 43.8066ZM111.796 43.4774C111.917 43.7944 112.088 44.026 112.308 44.1723C112.551 44.2942 112.82 44.3551 113.112 44.3551C113.6 44.3551 114.112 44.0626 114.648 43.4774C115.185 42.8923 115.745 42.0633 116.33 40.9905C116.842 39.7227 117.342 38.4427 117.83 37.1505C118.318 35.8339 118.805 34.4685 119.293 33.0544C118.903 32.5912 118.439 32.2133 117.903 31.9207C117.391 31.6038 116.855 31.4453 116.294 31.4453C116.026 31.4453 115.757 31.5184 115.489 31.6647C115.245 31.7866 115.002 31.9817 114.758 32.2499C114.295 32.7375 113.844 33.4445 113.405 34.371C112.99 35.2975 112.625 36.3581 112.308 37.5528C111.991 38.7474 111.771 39.9056 111.649 41.0271C111.527 42.1242 111.576 42.941 111.796 43.4774Z" fill="#2C0B21"/>
<path d="M97.1545 37.6381L100.3 27.1054C100.714 25.7156 100.995 24.6185 101.141 23.8139C101.287 22.9849 101.299 22.351 101.177 21.9122C101.08 21.4733 100.848 21.1929 100.483 21.071C100.117 20.9491 99.6414 20.8882 99.0563 20.8882H98.3248L98.654 19.535C100.239 19.5106 101.75 19.3034 103.189 18.9133C104.652 18.5232 105.859 18.0721 106.81 17.5601L108.528 18.5476C108.26 19.3034 107.894 20.364 107.431 21.7293C106.968 23.0947 106.505 24.5941 106.042 26.2276L102.531 37.8941C102.141 39.1619 101.836 40.2225 101.616 41.0758C101.397 41.9048 101.299 42.4412 101.324 42.685C101.348 42.9288 101.47 43.136 101.689 43.3067C101.933 43.4774 102.165 43.5627 102.384 43.5627C102.628 43.5383 102.957 43.2823 103.372 42.7947C103.811 42.2827 104.262 41.6244 104.725 40.8198L105.822 41.5878C105.213 42.6118 104.53 43.5749 103.774 44.477C103.043 45.3791 102.323 46.0374 101.616 46.4519C101.324 46.6225 100.995 46.7444 100.629 46.8176C100.288 46.9151 99.9218 46.9639 99.5317 46.9639C99.166 46.9639 98.7759 46.8907 98.3614 46.7444C97.9469 46.5982 97.5568 46.4031 97.1911 46.1593C96.8254 45.9155 96.5084 45.6229 96.2402 45.2816C95.9964 44.9159 95.8501 44.5136 95.8014 44.0747C95.7526 43.3676 95.838 42.5265 96.0574 41.5512C96.3012 40.576 96.6669 39.2716 97.1545 37.6381Z" fill="#2C0B21"/>
<path d="M83.0532 47.1833C80.8102 47.1833 78.8962 46.8054 77.3114 46.0496C75.751 45.2694 74.532 44.2332 73.6543 42.941C72.8009 41.6488 72.2645 40.1371 72.0451 38.4061C71.8501 36.675 71.972 34.8586 72.4108 32.9569C72.8741 30.9576 73.6421 29.2144 74.7148 27.7271C75.7876 26.2399 77.0554 25.0086 78.5183 24.0334C80.0056 23.0581 81.6513 22.3267 83.4555 21.839C85.2841 21.3514 87.1493 21.1076 89.051 21.1076C91.0015 21.1076 92.5863 21.2295 93.8053 21.4733C95.0244 21.7171 96.1216 22.0097 97.0968 22.351L95.2317 30.7991H93.2933C93.3909 29.5557 93.3909 28.4585 93.2933 27.5077C93.2202 26.5324 92.9886 25.7157 92.5985 25.0574C92.184 24.3747 91.672 23.8749 91.0625 23.5579C90.4773 23.2166 89.6605 23.0337 88.6121 23.0093C86.2715 23.0093 84.2601 23.9114 82.5778 25.7157C80.9199 27.5199 79.6764 30.2018 78.8475 33.7615C78.4574 35.4194 78.2745 36.9554 78.2989 38.3695C78.3476 39.7836 78.5671 41.0027 78.9572 42.0267C79.3717 43.0507 79.9812 43.8553 80.7858 44.4404C81.5904 45.0012 82.5656 45.2816 83.7115 45.2816C84.8331 45.2816 85.8083 45.0378 86.6373 44.5501C87.4906 44.0625 88.2708 43.3677 88.9779 42.4656C89.5874 41.7097 90.1238 40.8686 90.587 39.9421C91.0746 38.9912 91.5257 37.9916 91.9402 36.9432H93.9516L92.2328 45.5376C91.1844 45.9764 89.8922 46.3665 88.3561 46.7079C86.8445 47.0248 85.0769 47.1833 83.0532 47.1833Z" fill="#2C0B21"/>
<path d="M102.377 84.0639H104.02V85.675H102.377V84.0639ZM102.409 87.1597H103.988V95.1522H102.409V87.1597ZM106.234 87.1597H107.798V88.7235H107.83C108.098 87.8073 108.935 87.0018 110.357 87.0018C111.905 87.0018 112.916 87.9337 112.916 89.7818V95.1522H111.336V90.1608C111.336 88.913 110.815 88.376 109.804 88.376C108.667 88.376 107.814 89.4501 107.814 91.0296V95.1522H106.234V87.1597ZM118.938 92.9882V88.4865H117.848V87.2071H118.274C118.89 87.2071 119.048 87.0334 119.048 86.1962V84.5693H120.517V87.1597H122.602V88.4865H120.517V92.7039C120.517 93.6832 120.833 93.9517 121.575 93.9517C121.97 93.9517 122.302 93.8727 122.602 93.7306V95.0416C122.302 95.1838 121.812 95.3101 121.181 95.3101C119.585 95.3101 118.938 94.6625 118.938 92.9882ZM128.235 87.0018C129.752 87.0018 130.762 87.9337 130.762 89.7818V95.1522H129.183V90.1608C129.183 88.913 128.662 88.376 127.651 88.376C126.514 88.376 125.661 89.4501 125.661 91.0296V95.1522H124.081V83.7795H125.661V87.1597C125.661 87.681 125.645 88.2022 125.629 88.7235H125.676C125.945 87.8073 126.798 87.0018 128.235 87.0018ZM139.554 90.8874C139.554 91.0612 139.539 91.2981 139.523 91.5192H134.105C134.137 93.1304 134.926 93.9675 136.174 93.9675C137.359 93.9675 137.912 93.2251 137.991 92.467H139.475C139.381 93.9517 138.212 95.3101 136.158 95.3101C133.916 95.3101 132.478 93.8412 132.478 91.1717C132.478 88.5181 134.089 87.0018 136.095 87.0018C138.18 87.0018 139.554 88.4392 139.554 90.8874ZM136.095 88.2812C135.069 88.2812 134.295 88.992 134.137 90.4136H137.991C137.912 88.9446 137.154 88.2812 136.095 88.2812ZM156.009 87.1597L153.608 95.1522H151.792L150.37 90.3504C150.26 89.9555 150.133 89.4659 150.038 89.0078H150.007C149.912 89.4501 149.77 89.9555 149.659 90.3504L148.301 95.1522H146.485L144.084 87.1597H145.663L147.085 92.1037C147.211 92.5459 147.322 92.9882 147.416 93.4305H147.464C147.559 92.9724 147.669 92.5617 147.796 92.1195L149.201 87.1597H150.923L152.345 92.1037C152.487 92.5459 152.597 92.9882 152.692 93.4305H152.724C152.818 92.9724 152.929 92.5617 153.055 92.1195L154.461 87.1597H156.009ZM156.819 91.1875C156.819 88.5023 158.477 87.0018 160.578 87.0018C162.711 87.0018 164.29 88.455 164.29 91.1244C164.29 93.778 162.632 95.3101 160.562 95.3101C158.414 95.3101 156.819 93.8412 156.819 91.1875ZM162.679 91.1559C162.679 89.3395 161.794 88.3286 160.578 88.3286C159.33 88.3286 158.446 89.3711 158.446 91.1559C158.446 92.9724 159.33 93.9833 160.562 93.9833C161.794 93.9833 162.679 92.9408 162.679 91.1559ZM166.13 87.1597H167.694V89.0394H167.725C168.057 87.8863 168.862 87.0334 170.031 87.0334C170.331 87.0334 170.553 87.0492 170.821 87.1124V88.7393C170.489 88.6445 170.205 88.6129 169.921 88.6129C168.815 88.6129 167.709 89.4659 167.709 91.4877V95.1522H166.13V87.1597ZM172.254 83.7795H173.833V95.1522H172.254V83.7795ZM181.497 83.7795H183.092V95.1522H181.528V93.6358H181.481C181.292 94.4098 180.502 95.3101 179.033 95.3101C177.137 95.3101 175.668 93.8569 175.668 91.2033C175.668 88.6129 177.106 87.0018 179.207 87.0018C180.581 87.0018 181.276 87.8231 181.465 88.376H181.497V83.7795ZM181.497 91.2349V90.8874C181.497 89.2605 180.597 88.297 179.459 88.297C178.148 88.297 177.295 89.4027 177.295 91.1559C177.295 92.9882 178.164 94.0149 179.38 94.0149C180.565 94.0149 181.497 93.004 181.497 91.2349Z" fill="#2C0B21"/>
<rect x="160.771" y="109" width="25.2031" height="25.2031" rx="4" fill="#FF4052"/>
<path d="M169.772 117.954L176.12 124.302M176.12 124.302L169.772 124.302M176.12 124.302L176.12 117.954" stroke="#FFFAF2" stroke-width="1.00744"/>
<defs>
<linearGradient id="paint0_linear_3235_23548" x1="97.4658" y1="-43" x2="97.4658" y2="125.483" gradientUnits="userSpaceOnUse">
<stop offset="0.55" stop-color="#FFF7F0"/>
<stop offset="1" stop-color="#FFEBDB"/>
</linearGradient>
</defs>
</svg>
