<svg width="316" height="97" viewBox="0 0 316 97" fill="none" xmlns="http://www.w3.org/2000/svg">
<path d="M77.8921 50.1722C77.8921 58.7572 76.9192 65.6119 74.9734 70.7364C73.0275 75.8632 70.3105 79.511 66.8224 81.6845C63.3343 83.8581 59.1136 84.9436 54.1577 84.9436C47.9166 84.9436 42.5739 83.4859 38.1321 80.5705C33.9834 77.8471 30.9565 73.6162 29.0491 67.8755C28.8161 67.1739 28.0882 66.7544 27.3531 66.9061L27.1249 66.9535C26.3754 67.1099 25.8733 67.8092 25.9766 68.5581L28.5374 87.5082C28.5471 87.5722 28.5495 87.6362 28.5495 87.7002V93.4172C28.5495 95.4794 27.4252 96.8399 25.0806 96.8399H3.77003C1.87704 96.8399 0.301147 95.5196 0.301147 93.4172V19.8544C0.301147 17.7662 1.96352 16.4318 3.77003 16.4318H24.3383C26.2865 16.4318 27.8648 17.6951 27.5405 20.1199L25.4145 37.2283C25.3184 37.9939 25.8517 38.7002 26.6228 38.8306L26.7838 38.8566C27.5501 38.9846 28.2852 38.4987 28.4558 37.7521C29.741 32.156 31.4034 27.7213 33.4477 24.4456C35.6506 20.9139 38.3579 18.4157 41.5698 16.9485C44.7816 15.4813 48.7189 14.7489 53.3817 14.7489C69.7604 14.7466 77.9281 26.5551 77.8921 50.1722ZM47.0566 62.5591C48.4523 60.3144 49.1489 56.7449 49.1489 51.8551C49.1489 47.1098 48.4691 43.7251 47.1118 41.6962C45.7521 39.6673 43.5324 38.6528 40.4479 38.6528C38.466 38.6528 36.5923 39.1506 34.8314 40.1461C33.0681 41.1416 31.6196 42.6633 30.4809 44.7088C29.3422 46.7567 28.7008 49.281 28.5543 52.2888V60.2149C28.5543 60.6984 28.8017 61.1488 29.2077 61.419C31.6964 63.0663 33.7288 64.2159 35.2998 64.8653C37.0079 65.5716 38.8144 65.9248 40.7242 65.9248C43.5492 65.9272 45.6608 64.8061 47.0566 62.5591Z" fill="#FFFAF2"/>
<path d="M133.895 80.4667C128.389 77.895 124.277 74.1903 121.56 69.355C118.843 64.5198 117.485 58.6984 117.485 51.8864V19.1273C117.485 17.1718 118.941 15.7046 120.954 15.7046H142.265C144.288 15.7046 145.734 17.2761 145.734 19.1273V51.2914C145.734 54.4794 146.469 56.6695 147.937 57.8665C149.404 59.0611 151.571 59.6584 154.435 59.6584C157.298 59.6584 159.472 59.0326 160.959 57.7835C162.446 56.5344 163.189 54.3704 163.189 51.2914V19.1273C163.189 17.2453 164.558 15.7046 166.657 15.7046H187.968C189.947 15.7046 191.437 16.949 191.437 18.7314V51.8887C191.437 58.6984 190.077 64.5198 187.363 69.3574C184.646 74.1927 180.535 77.8974 175.027 80.4691C169.521 83.0408 162.655 84.3279 154.432 84.3279C146.25 84.3255 139.404 83.0385 133.895 80.4667Z" fill="#FFFAF2"/>
<path d="M309.89 23.9626C313.763 29.4686 315.699 38.2338 315.699 50.258V80.7915C315.699 82.6853 314.282 84.2141 312.23 84.2141H290.864C288.947 84.2141 287.395 82.9887 287.395 80.7915V51.8366C287.395 47.5275 286.754 44.4486 285.469 42.5998C284.183 40.7533 282.274 39.8289 279.742 39.8289C276.621 39.8289 274.327 40.8695 272.859 42.9529C271.391 45.0364 270.62 48.3239 270.546 52.8131V80.7938C270.546 82.5999 269.208 84.2164 267.077 84.2164H245.822C243.871 84.2164 242.353 82.7777 242.353 80.7938V51.8366C242.353 47.563 241.728 44.4936 240.481 42.6282C239.232 40.7628 237.325 39.8313 234.754 39.8313C232.001 39.8313 229.779 40.9098 228.09 43.0643C226.402 45.2189 225.539 48.4163 225.503 52.6543V80.7986C225.503 82.799 224.165 84.2212 222.034 84.2212H200.724C198.845 84.2212 197.255 82.8725 197.255 80.7986V20.8125C197.255 18.8879 198.61 17.3899 200.724 17.3899H221.311C223.392 17.3899 224.85 18.447 224.619 20.3527L222.779 36.6836C222.7 37.3971 223.161 38.0608 223.867 38.2433C224.686 38.4542 225.513 37.9351 225.674 37.115C226.676 31.9692 228.014 27.8829 229.688 24.8609C231.523 21.5473 233.873 19.1936 236.736 17.7976C239.6 16.4039 243.234 15.7046 247.64 15.7046C253 15.7046 257.396 17.5345 260.829 21.1917C264.064 24.6428 266.003 29.9427 266.647 37.0984C266.714 37.8427 267.346 38.4163 268.105 38.4163H268.405C269.1 38.4163 269.703 37.9351 269.84 37.2644C270.921 31.9811 272.367 27.8118 274.183 24.7519C276.129 21.4738 278.605 19.1462 281.618 17.7691C284.628 16.392 288.464 15.7046 293.127 15.7046C300.428 15.7046 306.018 18.4589 309.89 23.9626Z" fill="#FFFAF2"/>
<path d="M111.678 3.13201V80.7242C111.678 82.637 110.16 84.1468 108.209 84.1468H87.1751C85.2893 84.1468 83.7062 82.6939 83.7062 80.7242V7.31549C83.7062 5.47618 84.8401 4.00663 86.7475 3.60843L108.072 0.0459581C110.167 -0.285876 111.678 1.22396 111.678 3.13201Z" fill="#FFFAF2"/>
</svg>
